<svg xmlns="http://www.w3.org/2000/svg" xmlns:xlink="http://www.w3.org/1999/xlink" width="500" zoomAndPan="magnify" viewBox="0 0 375 374.999991" height="500" preserveAspectRatio="xMidYMid meet" version="1.0"><defs><g/><clipPath id="008077e76f"><path d="M 132.695312 103.195312 L 242.195312 103.195312 L 242.195312 212.695312 L 132.695312 212.695312 Z M 132.695312 103.195312 " clip-rule="nonzero"/></clipPath></defs><g clip-path="url(#008077e76f)"><path fill="#5271ff" d="M 236.820312 187.226562 L 138.175781 187.226562 C 137.171875 187.226562 136.347656 186.40625 136.347656 185.398438 L 136.347656 179.917969 L 238.648438 179.917969 L 238.648438 185.398438 C 238.648438 186.40625 237.828125 187.226562 236.820312 187.226562 Z M 196.632812 198.1875 L 178.363281 198.1875 L 178.363281 190.878906 L 196.632812 190.878906 Z M 207.59375 201.839844 C 208.597656 201.839844 209.417969 202.660156 209.417969 203.667969 L 209.417969 209.148438 L 165.578125 209.148438 L 165.578125 203.667969 C 165.578125 202.660156 166.398438 201.839844 167.402344 201.839844 Z M 138.175781 121.464844 L 145.484375 121.464844 L 145.484375 123.289062 L 140.003906 123.289062 C 138.996094 123.289062 138.175781 124.109375 138.175781 125.117188 L 138.175781 172.613281 C 138.175781 173.617188 138.996094 174.4375 140.003906 174.4375 L 234.996094 174.4375 C 236 174.4375 236.820312 173.617188 236.820312 172.613281 L 236.820312 125.117188 C 236.820312 124.109375 236 123.289062 234.996094 123.289062 L 229.515625 123.289062 L 229.515625 121.464844 L 236.820312 121.464844 C 237.828125 121.464844 238.648438 122.285156 238.648438 123.289062 L 238.648438 176.265625 L 136.347656 176.265625 L 136.347656 123.289062 C 136.347656 122.285156 137.171875 121.464844 138.175781 121.464844 Z M 150.964844 106.847656 L 224.035156 106.847656 C 225.039062 106.847656 225.859375 107.671875 225.859375 108.675781 L 225.859375 114.15625 L 149.136719 114.15625 L 149.136719 108.675781 C 149.136719 107.671875 149.957031 106.847656 150.964844 106.847656 Z M 150.964844 167.132812 L 224.035156 167.132812 C 227.058594 167.132812 229.515625 164.675781 229.515625 161.652344 L 229.515625 126.945312 L 233.167969 126.945312 L 233.167969 170.785156 L 141.828125 170.785156 L 141.828125 126.945312 L 145.484375 126.945312 L 145.484375 161.652344 C 145.484375 164.675781 147.9375 167.132812 150.964844 167.132812 Z M 225.859375 161.652344 C 225.859375 162.660156 225.039062 163.480469 224.035156 163.480469 L 150.964844 163.480469 C 149.957031 163.480469 149.136719 162.660156 149.136719 161.652344 L 149.136719 117.808594 L 225.859375 117.808594 Z M 236.820312 117.808594 L 229.515625 117.808594 L 229.515625 108.675781 C 229.515625 105.652344 227.058594 103.195312 224.035156 103.195312 L 150.964844 103.195312 C 147.9375 103.195312 145.484375 105.652344 145.484375 108.675781 L 145.484375 117.808594 L 138.175781 117.808594 C 135.152344 117.808594 132.695312 120.265625 132.695312 123.289062 L 132.695312 185.398438 C 132.695312 188.425781 135.152344 190.878906 138.175781 190.878906 L 174.710938 190.878906 L 174.710938 198.1875 L 167.402344 198.1875 C 164.378906 198.1875 161.925781 200.640625 161.925781 203.667969 L 161.925781 210.972656 C 161.925781 211.980469 162.746094 212.800781 163.75 212.800781 L 211.246094 212.800781 C 212.253906 212.800781 213.074219 211.980469 213.074219 210.972656 L 213.074219 203.667969 C 213.074219 200.640625 210.617188 198.1875 207.59375 198.1875 L 200.285156 198.1875 L 200.285156 190.878906 L 236.820312 190.878906 C 239.847656 190.878906 242.300781 188.425781 242.300781 185.398438 L 242.300781 123.289062 C 242.300781 120.265625 239.847656 117.808594 236.820312 117.808594 " fill-opacity="1" fill-rule="nonzero"/></g><path fill="#5271ff" d="M 229.515625 181.746094 L 225.859375 181.746094 C 224.855469 181.746094 224.035156 182.566406 224.035156 183.574219 C 224.035156 184.578125 224.855469 185.398438 225.859375 185.398438 L 229.515625 185.398438 C 230.519531 185.398438 231.339844 184.578125 231.339844 183.574219 C 231.339844 182.566406 230.519531 181.746094 229.515625 181.746094 " fill-opacity="1" fill-rule="nonzero"/><path fill="#5271ff" d="M 156.445312 108.675781 L 152.789062 108.675781 L 152.789062 112.328125 L 156.445312 112.328125 L 156.445312 108.675781 " fill-opacity="1" fill-rule="nonzero"/><path fill="#5271ff" d="M 163.75 108.675781 L 160.097656 108.675781 L 160.097656 112.328125 L 163.75 112.328125 L 163.75 108.675781 " fill-opacity="1" fill-rule="nonzero"/><path fill="#5271ff" d="M 171.058594 108.675781 L 167.402344 108.675781 L 167.402344 112.328125 L 171.058594 112.328125 L 171.058594 108.675781 " fill-opacity="1" fill-rule="nonzero"/><path fill="#5271ff" d="M 161.925781 125.117188 L 165.578125 125.117188 C 166.582031 125.117188 167.402344 124.296875 167.402344 123.289062 C 167.402344 122.285156 166.582031 121.464844 165.578125 121.464844 L 161.925781 121.464844 C 160.917969 121.464844 160.097656 122.285156 160.097656 123.289062 C 160.097656 124.296875 160.917969 125.117188 161.925781 125.117188 " fill-opacity="1" fill-rule="nonzero"/><path fill="#5271ff" d="M 171.058594 125.117188 L 172.882812 125.117188 C 173.890625 125.117188 174.710938 124.296875 174.710938 123.289062 C 174.710938 122.285156 173.890625 121.464844 172.882812 121.464844 L 171.058594 121.464844 C 170.050781 121.464844 169.230469 122.285156 169.230469 123.289062 C 169.230469 124.296875 170.050781 125.117188 171.058594 125.117188 " fill-opacity="1" fill-rule="nonzero"/><path fill="#5271ff" d="M 161.925781 148.863281 L 165.578125 148.863281 C 166.582031 148.863281 167.402344 148.042969 167.402344 147.039062 C 167.402344 146.03125 166.582031 145.210938 165.578125 145.210938 L 161.925781 145.210938 C 160.917969 145.210938 160.097656 146.03125 160.097656 147.039062 C 160.097656 148.042969 160.917969 148.863281 161.925781 148.863281 " fill-opacity="1" fill-rule="nonzero"/><path fill="#5271ff" d="M 174.710938 147.039062 C 174.710938 146.03125 173.890625 145.210938 172.882812 145.210938 L 171.058594 145.210938 C 170.050781 145.210938 169.230469 146.03125 169.230469 147.039062 C 169.230469 148.042969 170.050781 148.863281 171.058594 148.863281 L 172.882812 148.863281 C 173.890625 148.863281 174.710938 148.042969 174.710938 147.039062 " fill-opacity="1" fill-rule="nonzero"/><path fill="#5271ff" d="M 163.75 128.769531 C 163.75 129.777344 164.570312 130.597656 165.578125 130.597656 L 176.539062 130.597656 C 177.542969 130.597656 178.363281 129.777344 178.363281 128.769531 C 178.363281 127.765625 177.542969 126.945312 176.539062 126.945312 L 165.578125 126.945312 C 164.570312 126.945312 163.75 127.765625 163.75 128.769531 " fill-opacity="1" fill-rule="nonzero"/><path fill="#5271ff" d="M 165.578125 136.078125 L 176.539062 136.078125 C 177.542969 136.078125 178.363281 135.257812 178.363281 134.25 C 178.363281 133.246094 177.542969 132.425781 176.539062 132.425781 L 165.578125 132.425781 C 164.570312 132.425781 163.75 133.246094 163.75 134.25 C 163.75 135.257812 164.570312 136.078125 165.578125 136.078125 " fill-opacity="1" fill-rule="nonzero"/><path fill="#5271ff" d="M 183.84375 136.078125 L 205.765625 136.078125 C 206.773438 136.078125 207.59375 135.257812 207.59375 134.25 C 207.59375 133.246094 206.773438 132.425781 205.765625 132.425781 L 183.84375 132.425781 C 182.839844 132.425781 182.019531 133.246094 182.019531 134.25 C 182.019531 135.257812 182.839844 136.078125 183.84375 136.078125 " fill-opacity="1" fill-rule="nonzero"/><path fill="#5271ff" d="M 165.578125 141.558594 L 176.539062 141.558594 C 177.542969 141.558594 178.363281 140.738281 178.363281 139.730469 C 178.363281 138.726562 177.542969 137.902344 176.539062 137.902344 L 165.578125 137.902344 C 164.570312 137.902344 163.75 138.726562 163.75 139.730469 C 163.75 140.738281 164.570312 141.558594 165.578125 141.558594 " fill-opacity="1" fill-rule="nonzero"/><path fill="#5271ff" d="M 183.84375 141.558594 L 213.074219 141.558594 C 214.078125 141.558594 214.898438 140.738281 214.898438 139.730469 C 214.898438 138.726562 214.078125 137.902344 213.074219 137.902344 L 183.84375 137.902344 C 182.839844 137.902344 182.019531 138.726562 182.019531 139.730469 C 182.019531 140.738281 182.839844 141.558594 183.84375 141.558594 " fill-opacity="1" fill-rule="nonzero"/><path fill="#5271ff" d="M 167.402344 150.691406 L 165.578125 150.691406 C 164.570312 150.691406 163.75 151.511719 163.75 152.519531 C 163.75 153.523438 164.570312 154.34375 165.578125 154.34375 L 167.402344 154.34375 C 168.410156 154.34375 169.230469 153.523438 169.230469 152.519531 C 169.230469 151.511719 168.410156 150.691406 167.402344 150.691406 " fill-opacity="1" fill-rule="nonzero"/><path fill="#5271ff" d="M 189.324219 150.691406 L 174.710938 150.691406 C 173.707031 150.691406 172.882812 151.511719 172.882812 152.519531 C 172.882812 153.523438 173.707031 154.34375 174.710938 154.34375 L 189.324219 154.34375 C 190.332031 154.34375 191.152344 153.523438 191.152344 152.519531 C 191.152344 151.511719 190.332031 150.691406 189.324219 150.691406 " fill-opacity="1" fill-rule="nonzero"/><path fill="#5271ff" d="M 207.59375 150.691406 L 196.632812 150.691406 C 195.625 150.691406 194.804688 151.511719 194.804688 152.519531 C 194.804688 153.523438 195.625 154.34375 196.632812 154.34375 L 207.59375 154.34375 C 208.597656 154.34375 209.417969 153.523438 209.417969 152.519531 C 209.417969 151.511719 208.597656 150.691406 207.59375 150.691406 " fill-opacity="1" fill-rule="nonzero"/><path fill="#5271ff" d="M 167.402344 156.171875 L 165.578125 156.171875 C 164.570312 156.171875 163.75 156.992188 163.75 158 C 163.75 159.003906 164.570312 159.824219 165.578125 159.824219 L 167.402344 159.824219 C 168.410156 159.824219 169.230469 159.003906 169.230469 158 C 169.230469 156.992188 168.410156 156.171875 167.402344 156.171875 " fill-opacity="1" fill-rule="nonzero"/><path fill="#5271ff" d="M 189.324219 156.171875 L 174.710938 156.171875 C 173.707031 156.171875 172.882812 156.992188 172.882812 158 C 172.882812 159.003906 173.707031 159.824219 174.710938 159.824219 L 189.324219 159.824219 C 190.332031 159.824219 191.152344 159.003906 191.152344 158 C 191.152344 156.992188 190.332031 156.171875 189.324219 156.171875 " fill-opacity="1" fill-rule="nonzero"/><path fill="#5271ff" d="M 200.285156 156.171875 L 196.632812 156.171875 C 195.625 156.171875 194.804688 156.992188 194.804688 158 C 194.804688 159.003906 195.625 159.824219 196.632812 159.824219 L 200.285156 159.824219 C 201.292969 159.824219 202.113281 159.003906 202.113281 158 C 202.113281 156.992188 201.292969 156.171875 200.285156 156.171875 " fill-opacity="1" fill-rule="nonzero"/><path fill="#5271ff" d="M 183.84375 130.597656 L 187.5 130.597656 C 188.503906 130.597656 189.324219 129.777344 189.324219 128.769531 C 189.324219 127.765625 188.503906 126.945312 187.5 126.945312 L 183.84375 126.945312 C 182.839844 126.945312 182.019531 127.765625 182.019531 128.769531 C 182.019531 129.777344 182.839844 130.597656 183.84375 130.597656 " fill-opacity="1" fill-rule="nonzero"/><g fill="#000000" fill-opacity="1"><g transform="translate(103.042966, 247.254212)"><g><path d="M 22.453125 0 L 19.078125 -15.921875 L 18.921875 -15.921875 L 15.546875 0 L 6.3125 0 L 0.1875 -26.140625 L 8.9375 -26.140625 L 11.9375 -11.328125 L 12.078125 -11.328125 L 15.046875 -26.140625 L 23.328125 -26.140625 L 26.484375 -11.328125 L 26.640625 -11.328125 L 29.453125 -26.140625 L 37.8125 -26.140625 L 31.6875 0 Z M 22.453125 0 "/></g></g></g><g fill="#000000" fill-opacity="1"><g transform="translate(141.035208, 247.254212)"><g><path d="M 12.65625 -20.515625 C 16.320312 -20.515625 19.125 -19.65625 21.0625 -17.9375 C 23.007812 -16.21875 23.984375 -13.582031 23.984375 -10.03125 L 23.984375 -8.734375 L 8.9375 -8.734375 C 8.9375 -7.296875 9.257812 -6.207031 9.90625 -5.46875 C 10.550781 -4.738281 11.566406 -4.375 12.953125 -4.375 C 14.222656 -4.375 15.15625 -4.640625 15.75 -5.171875 C 16.34375 -5.703125 16.640625 -6.410156 16.640625 -7.296875 L 23.984375 -7.296875 C 23.984375 -4.859375 23.054688 -2.957031 21.203125 -1.59375 C 19.359375 -0.226562 16.660156 0.453125 13.109375 0.453125 C 9.390625 0.453125 6.503906 -0.410156 4.453125 -2.140625 C 2.398438 -3.878906 1.375 -6.507812 1.375 -10.03125 C 1.375 -13.476562 2.375 -16.085938 4.375 -17.859375 C 6.375 -19.628906 9.132812 -20.515625 12.65625 -20.515625 Z M 12.953125 -15.6875 C 10.578125 -15.6875 9.25 -14.5625 8.96875 -12.3125 L 16.34375 -12.3125 C 16.34375 -13.351562 16.039062 -14.175781 15.4375 -14.78125 C 14.84375 -15.382812 14.015625 -15.6875 12.953125 -15.6875 Z M 12.953125 -15.6875 "/></g></g></g><g fill="#000000" fill-opacity="1"><g transform="translate(166.376031, 247.254212)"><g><path d="M 9.875 -18.203125 C 11.320312 -19.742188 13.195312 -20.515625 15.5 -20.515625 C 18.207031 -20.515625 20.296875 -19.632812 21.765625 -17.875 C 23.242188 -16.113281 23.984375 -13.507812 23.984375 -10.0625 C 23.984375 -6.59375 23.242188 -3.972656 21.765625 -2.203125 C 20.296875 -0.429688 18.207031 0.453125 15.5 0.453125 C 12.71875 0.453125 10.59375 -0.644531 9.125 -2.84375 L 8.46875 0 L 2.3125 0 L 2.3125 -27.546875 L 9.875 -27.546875 Z M 13.140625 -14.9375 C 12.023438 -14.9375 11.1875 -14.535156 10.625 -13.734375 C 10.070312 -12.941406 9.796875 -11.910156 9.796875 -10.640625 L 9.796875 -9.390625 C 9.796875 -8.117188 10.070312 -7.085938 10.625 -6.296875 C 11.1875 -5.515625 12.023438 -5.125 13.140625 -5.125 C 15.328125 -5.125 16.421875 -6.414062 16.421875 -9 L 16.421875 -11.015625 C 16.421875 -13.628906 15.328125 -14.9375 13.140625 -14.9375 Z M 13.140625 -14.9375 "/></g></g></g><g fill="#000000" fill-opacity="1"><g transform="translate(191.716854, 247.254212)"><g><path d="M 15.28125 -26.59375 C 19.15625 -26.59375 22.21875 -25.625 24.46875 -23.6875 C 26.726562 -21.75 27.859375 -18.984375 27.859375 -15.390625 L 19.84375 -15.390625 C 19.84375 -16.910156 19.441406 -18.113281 18.640625 -19 C 17.835938 -19.882812 16.703125 -20.328125 15.234375 -20.328125 C 13.535156 -20.328125 12.285156 -19.796875 11.484375 -18.734375 C 10.691406 -17.671875 10.296875 -16.1875 10.296875 -14.28125 L 10.296875 -11.859375 C 10.296875 -9.984375 10.691406 -8.503906 11.484375 -7.421875 C 12.285156 -6.347656 13.507812 -5.8125 15.15625 -5.8125 C 16.78125 -5.8125 18.007812 -6.226562 18.84375 -7.0625 C 19.6875 -7.90625 20.109375 -9.085938 20.109375 -10.609375 L 27.859375 -10.609375 C 27.859375 -7.035156 26.757812 -4.296875 24.5625 -2.390625 C 22.375 -0.492188 19.28125 0.453125 15.28125 0.453125 C 10.820312 0.453125 7.441406 -0.6875 5.140625 -2.96875 C 2.847656 -5.25 1.703125 -8.617188 1.703125 -13.078125 C 1.703125 -17.535156 2.847656 -20.898438 5.140625 -23.171875 C 7.441406 -25.453125 10.820312 -26.59375 15.28125 -26.59375 Z M 15.28125 -26.59375 "/></g></g></g><g fill="#000000" fill-opacity="1"><g transform="translate(221.274813, 247.254212)"><g><path d="M 12.65625 -20.515625 C 16.175781 -20.515625 18.941406 -19.617188 20.953125 -17.828125 C 22.972656 -16.046875 23.984375 -13.445312 23.984375 -10.03125 C 23.984375 -6.613281 22.972656 -4.007812 20.953125 -2.21875 C 18.941406 -0.4375 16.175781 0.453125 12.65625 0.453125 C 9.132812 0.453125 6.375 -0.429688 4.375 -2.203125 C 2.375 -3.972656 1.375 -6.582031 1.375 -10.03125 C 1.375 -13.476562 2.375 -16.085938 4.375 -17.859375 C 6.375 -19.628906 9.132812 -20.515625 12.65625 -20.515625 Z M 12.65625 -15.390625 C 10.175781 -15.390625 8.9375 -13.957031 8.9375 -11.09375 L 8.9375 -8.9375 C 8.9375 -6.09375 10.175781 -4.671875 12.65625 -4.671875 C 15.164062 -4.671875 16.421875 -6.09375 16.421875 -8.9375 L 16.421875 -11.09375 C 16.421875 -13.957031 15.164062 -15.390625 12.65625 -15.390625 Z M 12.65625 -15.390625 "/></g></g></g><g fill="#000000" fill-opacity="1"><g transform="translate(246.615636, 247.254212)"><g><path d="M 16.875 0 L 16.21875 -2.84375 C 14.75 -0.644531 12.625 0.453125 9.84375 0.453125 C 7.132812 0.453125 5.046875 -0.429688 3.578125 -2.203125 C 2.109375 -3.972656 1.375 -6.59375 1.375 -10.0625 C 1.375 -13.507812 2.109375 -16.113281 3.578125 -17.875 C 5.046875 -19.632812 7.132812 -20.515625 9.84375 -20.515625 C 12.144531 -20.515625 14.019531 -19.742188 15.46875 -18.203125 L 15.46875 -27.546875 L 23.03125 -27.546875 L 23.03125 0 Z M 12.203125 -14.9375 C 10.023438 -14.9375 8.9375 -13.628906 8.9375 -11.015625 L 8.9375 -9 C 8.9375 -6.414062 10.023438 -5.125 12.203125 -5.125 C 13.316406 -5.125 14.148438 -5.515625 14.703125 -6.296875 C 15.265625 -7.085938 15.546875 -8.117188 15.546875 -9.390625 L 15.546875 -10.640625 C 15.546875 -11.910156 15.265625 -12.941406 14.703125 -13.734375 C 14.148438 -14.535156 13.316406 -14.9375 12.203125 -14.9375 Z M 12.203125 -14.9375 "/></g></g></g><g fill="#5271ff" fill-opacity="1"><g transform="translate(121.884107, 269.254173)"><g><path d="M 1.171875 -8.5625 L 3.59375 -8.5625 C 4.726562 -8.5625 5.550781 -8.390625 6.0625 -8.046875 C 6.570312 -7.710938 6.828125 -7.179688 6.828125 -6.453125 C 6.828125 -5.941406 6.6875 -5.519531 6.40625 -5.1875 C 6.125 -4.851562 5.707031 -4.640625 5.15625 -4.546875 L 5.15625 -4.484375 C 6.457031 -4.265625 7.109375 -3.582031 7.109375 -2.4375 C 7.109375 -1.675781 6.847656 -1.078125 6.328125 -0.640625 C 5.816406 -0.210938 5.097656 0 4.171875 0 L 1.171875 0 Z M 2.171875 -4.90625 L 3.8125 -4.90625 C 4.519531 -4.90625 5.023438 -5.015625 5.328125 -5.234375 C 5.640625 -5.453125 5.796875 -5.820312 5.796875 -6.34375 C 5.796875 -6.820312 5.625 -7.164062 5.28125 -7.375 C 4.9375 -7.59375 4.390625 -7.703125 3.640625 -7.703125 L 2.171875 -7.703125 Z M 2.171875 -4.0625 L 2.171875 -0.84375 L 3.96875 -0.84375 C 4.65625 -0.84375 5.171875 -0.976562 5.515625 -1.25 C 5.867188 -1.519531 6.046875 -1.941406 6.046875 -2.515625 C 6.046875 -3.046875 5.863281 -3.4375 5.5 -3.6875 C 5.144531 -3.9375 4.601562 -4.0625 3.875 -4.0625 Z M 2.171875 -4.0625 "/></g></g></g><g fill="#5271ff" fill-opacity="1"><g transform="translate(131.43553, 269.254173)"><g><path d="M 3.75 0.125 C 2.800781 0.125 2.050781 -0.164062 1.5 -0.75 C 0.945312 -1.332031 0.671875 -2.132812 0.671875 -3.15625 C 0.671875 -4.195312 0.925781 -5.019531 1.4375 -5.625 C 1.945312 -6.238281 2.632812 -6.546875 3.5 -6.546875 C 4.300781 -6.546875 4.9375 -6.28125 5.40625 -5.75 C 5.875 -5.21875 6.109375 -4.519531 6.109375 -3.65625 L 6.109375 -3.03125 L 1.6875 -3.03125 C 1.707031 -2.28125 1.894531 -1.707031 2.25 -1.3125 C 2.613281 -0.925781 3.125 -0.734375 3.78125 -0.734375 C 4.46875 -0.734375 5.148438 -0.878906 5.828125 -1.171875 L 5.828125 -0.296875 C 5.484375 -0.148438 5.15625 -0.046875 4.84375 0.015625 C 4.539062 0.0859375 4.175781 0.125 3.75 0.125 Z M 3.484375 -5.71875 C 2.960938 -5.71875 2.546875 -5.550781 2.234375 -5.21875 C 1.929688 -4.882812 1.753906 -4.421875 1.703125 -3.828125 L 5.0625 -3.828125 C 5.0625 -4.441406 4.925781 -4.910156 4.65625 -5.234375 C 4.382812 -5.554688 3.992188 -5.71875 3.484375 -5.71875 Z M 3.484375 -5.71875 "/></g></g></g><g fill="#5271ff" fill-opacity="1"><g transform="translate(139.943984, 269.254173)"><g><path d="M 5.171875 -1.75 C 5.171875 -1.15625 4.945312 -0.691406 4.5 -0.359375 C 4.0625 -0.0351562 3.4375 0.125 2.625 0.125 C 1.78125 0.125 1.117188 -0.0078125 0.640625 -0.28125 L 0.640625 -1.1875 C 0.953125 -1.03125 1.28125 -0.90625 1.625 -0.8125 C 1.976562 -0.726562 2.320312 -0.6875 2.65625 -0.6875 C 3.164062 -0.6875 3.554688 -0.765625 3.828125 -0.921875 C 4.097656 -1.085938 4.234375 -1.335938 4.234375 -1.671875 C 4.234375 -1.921875 4.125 -2.132812 3.90625 -2.3125 C 3.695312 -2.488281 3.273438 -2.695312 2.640625 -2.9375 C 2.046875 -3.164062 1.617188 -3.363281 1.359375 -3.53125 C 1.109375 -3.695312 0.921875 -3.882812 0.796875 -4.09375 C 0.679688 -4.300781 0.625 -4.550781 0.625 -4.84375 C 0.625 -5.363281 0.835938 -5.773438 1.265625 -6.078125 C 1.691406 -6.390625 2.273438 -6.546875 3.015625 -6.546875 C 3.703125 -6.546875 4.378906 -6.40625 5.046875 -6.125 L 4.6875 -5.328125 C 4.050781 -5.585938 3.46875 -5.71875 2.9375 -5.71875 C 2.476562 -5.71875 2.128906 -5.644531 1.890625 -5.5 C 1.660156 -5.363281 1.546875 -5.164062 1.546875 -4.90625 C 1.546875 -4.738281 1.585938 -4.59375 1.671875 -4.46875 C 1.765625 -4.351562 1.90625 -4.238281 2.09375 -4.125 C 2.289062 -4.019531 2.671875 -3.863281 3.234375 -3.65625 C 3.992188 -3.375 4.503906 -3.09375 4.765625 -2.8125 C 5.035156 -2.53125 5.171875 -2.175781 5.171875 -1.75 Z M 5.171875 -1.75 "/></g></g></g><g fill="#5271ff" fill-opacity="1"><g transform="translate(147.444627, 269.254173)"><g><path d="M 3.109375 -0.6875 C 3.273438 -0.6875 3.4375 -0.695312 3.59375 -0.71875 C 3.757812 -0.75 3.890625 -0.773438 3.984375 -0.796875 L 3.984375 -0.0625 C 3.878906 -0.0078125 3.722656 0.03125 3.515625 0.0625 C 3.316406 0.101562 3.132812 0.125 2.96875 0.125 C 1.726562 0.125 1.109375 -0.53125 1.109375 -1.84375 L 1.109375 -5.671875 L 0.1875 -5.671875 L 0.1875 -6.140625 L 1.109375 -6.546875 L 1.515625 -7.90625 L 2.078125 -7.90625 L 2.078125 -6.421875 L 3.9375 -6.421875 L 3.9375 -5.671875 L 2.078125 -5.671875 L 2.078125 -1.890625 C 2.078125 -1.503906 2.164062 -1.207031 2.34375 -1 C 2.53125 -0.789062 2.785156 -0.6875 3.109375 -0.6875 Z M 3.109375 -0.6875 "/></g></g></g><g fill="#5271ff" fill-opacity="1"><g transform="translate(153.456986, 269.254173)"><g/></g></g><g fill="#5271ff" fill-opacity="1"><g transform="translate(158.350208, 269.254173)"><g><path d="M 8.65625 0 L 7.671875 0 L 5.9375 -5.734375 C 5.851562 -5.992188 5.757812 -6.316406 5.65625 -6.703125 C 5.5625 -7.085938 5.515625 -7.316406 5.515625 -7.390625 C 5.421875 -6.878906 5.28125 -6.316406 5.09375 -5.703125 L 3.421875 0 L 2.4375 0 L 0.15625 -8.5625 L 1.21875 -8.5625 L 2.5625 -3.28125 C 2.75 -2.53125 2.890625 -1.859375 2.984375 -1.265625 C 3.085938 -1.972656 3.242188 -2.671875 3.453125 -3.359375 L 4.984375 -8.5625 L 6.03125 -8.5625 L 7.640625 -3.3125 C 7.828125 -2.707031 7.988281 -2.023438 8.125 -1.265625 C 8.195312 -1.816406 8.335938 -2.488281 8.546875 -3.28125 L 9.890625 -8.5625 L 10.953125 -8.5625 Z M 8.65625 0 "/></g></g></g><g fill="#5271ff" fill-opacity="1"><g transform="translate(171.235617, 269.254173)"><g><path d="M 3.75 0.125 C 2.800781 0.125 2.050781 -0.164062 1.5 -0.75 C 0.945312 -1.332031 0.671875 -2.132812 0.671875 -3.15625 C 0.671875 -4.195312 0.925781 -5.019531 1.4375 -5.625 C 1.945312 -6.238281 2.632812 -6.546875 3.5 -6.546875 C 4.300781 -6.546875 4.9375 -6.28125 5.40625 -5.75 C 5.875 -5.21875 6.109375 -4.519531 6.109375 -3.65625 L 6.109375 -3.03125 L 1.6875 -3.03125 C 1.707031 -2.28125 1.894531 -1.707031 2.25 -1.3125 C 2.613281 -0.925781 3.125 -0.734375 3.78125 -0.734375 C 4.46875 -0.734375 5.148438 -0.878906 5.828125 -1.171875 L 5.828125 -0.296875 C 5.484375 -0.148438 5.15625 -0.046875 4.84375 0.015625 C 4.539062 0.0859375 4.175781 0.125 3.75 0.125 Z M 3.484375 -5.71875 C 2.960938 -5.71875 2.546875 -5.550781 2.234375 -5.21875 C 1.929688 -4.882812 1.753906 -4.421875 1.703125 -3.828125 L 5.0625 -3.828125 C 5.0625 -4.441406 4.925781 -4.910156 4.65625 -5.234375 C 4.382812 -5.554688 3.992188 -5.71875 3.484375 -5.71875 Z M 3.484375 -5.71875 "/></g></g></g><g fill="#5271ff" fill-opacity="1"><g transform="translate(179.744069, 269.254173)"><g><path d="M 4.015625 -6.53125 C 4.859375 -6.53125 5.515625 -6.238281 5.984375 -5.65625 C 6.453125 -5.082031 6.6875 -4.269531 6.6875 -3.21875 C 6.6875 -2.164062 6.453125 -1.34375 5.984375 -0.75 C 5.515625 -0.164062 4.859375 0.125 4.015625 0.125 C 3.597656 0.125 3.21875 0.046875 2.875 -0.109375 C 2.53125 -0.265625 2.238281 -0.503906 2 -0.828125 L 1.9375 -0.828125 L 1.734375 0 L 1.03125 0 L 1.03125 -9.125 L 2 -9.125 L 2 -6.90625 C 2 -6.40625 1.984375 -5.957031 1.953125 -5.5625 L 2 -5.5625 C 2.457031 -6.207031 3.128906 -6.53125 4.015625 -6.53125 Z M 3.875 -5.71875 C 3.21875 -5.71875 2.738281 -5.523438 2.4375 -5.140625 C 2.144531 -4.765625 2 -4.125 2 -3.21875 C 2 -2.3125 2.148438 -1.664062 2.453125 -1.28125 C 2.753906 -0.894531 3.238281 -0.703125 3.90625 -0.703125 C 4.5 -0.703125 4.941406 -0.914062 5.234375 -1.34375 C 5.523438 -1.78125 5.671875 -2.410156 5.671875 -3.234375 C 5.671875 -4.066406 5.523438 -4.6875 5.234375 -5.09375 C 4.941406 -5.507812 4.488281 -5.71875 3.875 -5.71875 Z M 3.875 -5.71875 "/></g></g></g><g fill="#5271ff" fill-opacity="1"><g transform="translate(188.873616, 269.254173)"><g/></g></g><g fill="#5271ff" fill-opacity="1"><g transform="translate(193.766835, 269.254173)"><g><path d="M 6.609375 -6.078125 C 6.609375 -5.203125 6.3125 -4.53125 5.71875 -4.0625 C 5.125 -3.601562 4.28125 -3.375 3.1875 -3.375 L 2.171875 -3.375 L 2.171875 0 L 1.171875 0 L 1.171875 -8.5625 L 3.40625 -8.5625 C 5.539062 -8.5625 6.609375 -7.734375 6.609375 -6.078125 Z M 2.171875 -4.21875 L 3.078125 -4.21875 C 3.953125 -4.21875 4.585938 -4.359375 4.984375 -4.640625 C 5.378906 -4.929688 5.578125 -5.394531 5.578125 -6.03125 C 5.578125 -6.59375 5.390625 -7.007812 5.015625 -7.28125 C 4.648438 -7.5625 4.070312 -7.703125 3.28125 -7.703125 L 2.171875 -7.703125 Z M 2.171875 -4.21875 "/></g></g></g><g fill="#5271ff" fill-opacity="1"><g transform="translate(202.767475, 269.254173)"><g><path d="M 3.96875 -6.546875 C 4.25 -6.546875 4.503906 -6.519531 4.734375 -6.46875 L 4.59375 -5.5625 C 4.332031 -5.625 4.097656 -5.65625 3.890625 -5.65625 C 3.367188 -5.65625 2.921875 -5.441406 2.546875 -5.015625 C 2.179688 -4.597656 2 -4.078125 2 -3.453125 L 2 0 L 1.03125 0 L 1.03125 -6.421875 L 1.828125 -6.421875 L 1.953125 -5.234375 L 2 -5.234375 C 2.226562 -5.648438 2.507812 -5.972656 2.84375 -6.203125 C 3.1875 -6.429688 3.5625 -6.546875 3.96875 -6.546875 Z M 3.96875 -6.546875 "/></g></g></g><g fill="#5271ff" fill-opacity="1"><g transform="translate(209.441943, 269.254173)"><g><path d="M 6.578125 -3.21875 C 6.578125 -2.164062 6.3125 -1.34375 5.78125 -0.75 C 5.257812 -0.164062 4.53125 0.125 3.59375 0.125 C 3.019531 0.125 2.507812 -0.0078125 2.0625 -0.28125 C 1.625 -0.550781 1.28125 -0.9375 1.03125 -1.4375 C 0.789062 -1.945312 0.671875 -2.539062 0.671875 -3.21875 C 0.671875 -4.257812 0.929688 -5.070312 1.453125 -5.65625 C 1.984375 -6.25 2.710938 -6.546875 3.640625 -6.546875 C 4.535156 -6.546875 5.25 -6.242188 5.78125 -5.640625 C 6.3125 -5.046875 6.578125 -4.238281 6.578125 -3.21875 Z M 1.6875 -3.21875 C 1.6875 -2.394531 1.847656 -1.769531 2.171875 -1.34375 C 2.503906 -0.914062 2.988281 -0.703125 3.625 -0.703125 C 4.257812 -0.703125 4.738281 -0.914062 5.0625 -1.34375 C 5.394531 -1.769531 5.5625 -2.394531 5.5625 -3.21875 C 5.5625 -4.03125 5.394531 -4.648438 5.0625 -5.078125 C 4.738281 -5.503906 4.253906 -5.71875 3.609375 -5.71875 C 2.972656 -5.71875 2.492188 -5.503906 2.171875 -5.078125 C 1.847656 -4.660156 1.6875 -4.039062 1.6875 -3.21875 Z M 1.6875 -3.21875 "/></g></g></g><g fill="#5271ff" fill-opacity="1"><g transform="translate(218.466021, 269.254173)"><g><path d="M 6.28125 -6.421875 L 6.28125 -5.8125 L 5.09375 -5.671875 C 5.207031 -5.535156 5.304688 -5.351562 5.390625 -5.125 C 5.472656 -4.90625 5.515625 -4.660156 5.515625 -4.390625 C 5.515625 -3.753906 5.300781 -3.25 4.875 -2.875 C 4.445312 -2.5 3.859375 -2.3125 3.109375 -2.3125 C 2.910156 -2.3125 2.726562 -2.328125 2.5625 -2.359375 C 2.15625 -2.140625 1.953125 -1.863281 1.953125 -1.53125 C 1.953125 -1.351562 2.019531 -1.222656 2.15625 -1.140625 C 2.300781 -1.054688 2.550781 -1.015625 2.90625 -1.015625 L 4.046875 -1.015625 C 4.742188 -1.015625 5.273438 -0.867188 5.640625 -0.578125 C 6.015625 -0.285156 6.203125 0.140625 6.203125 0.703125 C 6.203125 1.410156 5.914062 1.953125 5.34375 2.328125 C 4.78125 2.703125 3.953125 2.890625 2.859375 2.890625 C 2.015625 2.890625 1.363281 2.734375 0.90625 2.421875 C 0.457031 2.109375 0.234375 1.664062 0.234375 1.09375 C 0.234375 0.695312 0.359375 0.351562 0.609375 0.0625 C 0.859375 -0.21875 1.207031 -0.40625 1.65625 -0.5 C 1.488281 -0.570312 1.347656 -0.6875 1.234375 -0.84375 C 1.128906 -1 1.078125 -1.179688 1.078125 -1.390625 C 1.078125 -1.628906 1.140625 -1.835938 1.265625 -2.015625 C 1.390625 -2.191406 1.585938 -2.359375 1.859375 -2.515625 C 1.523438 -2.648438 1.253906 -2.878906 1.046875 -3.203125 C 0.835938 -3.535156 0.734375 -3.914062 0.734375 -4.34375 C 0.734375 -5.039062 0.941406 -5.582031 1.359375 -5.96875 C 1.785156 -6.351562 2.382812 -6.546875 3.15625 -6.546875 C 3.488281 -6.546875 3.789062 -6.503906 4.0625 -6.421875 Z M 1.171875 1.078125 C 1.171875 1.421875 1.316406 1.679688 1.609375 1.859375 C 1.898438 2.046875 2.316406 2.140625 2.859375 2.140625 C 3.679688 2.140625 4.285156 2.015625 4.671875 1.765625 C 5.066406 1.523438 5.265625 1.195312 5.265625 0.78125 C 5.265625 0.4375 5.15625 0.195312 4.9375 0.0625 C 4.726562 -0.0703125 4.328125 -0.140625 3.734375 -0.140625 L 2.5625 -0.140625 C 2.125 -0.140625 1.78125 -0.0351562 1.53125 0.171875 C 1.289062 0.378906 1.171875 0.679688 1.171875 1.078125 Z M 1.6875 -4.359375 C 1.6875 -3.910156 1.8125 -3.570312 2.0625 -3.34375 C 2.320312 -3.113281 2.679688 -3 3.140625 -3 C 4.085938 -3 4.5625 -3.460938 4.5625 -4.390625 C 4.5625 -5.347656 4.082031 -5.828125 3.125 -5.828125 C 2.664062 -5.828125 2.3125 -5.703125 2.0625 -5.453125 C 1.8125 -5.210938 1.6875 -4.847656 1.6875 -4.359375 Z M 1.6875 -4.359375 "/></g></g></g><g fill="#5271ff" fill-opacity="1"><g transform="translate(226.816271, 269.254173)"><g><path d="M 3.96875 -6.546875 C 4.25 -6.546875 4.503906 -6.519531 4.734375 -6.46875 L 4.59375 -5.5625 C 4.332031 -5.625 4.097656 -5.65625 3.890625 -5.65625 C 3.367188 -5.65625 2.921875 -5.441406 2.546875 -5.015625 C 2.179688 -4.597656 2 -4.078125 2 -3.453125 L 2 0 L 1.03125 0 L 1.03125 -6.421875 L 1.828125 -6.421875 L 1.953125 -5.234375 L 2 -5.234375 C 2.226562 -5.648438 2.507812 -5.972656 2.84375 -6.203125 C 3.1875 -6.429688 3.5625 -6.546875 3.96875 -6.546875 Z M 3.96875 -6.546875 "/></g></g></g><g fill="#5271ff" fill-opacity="1"><g transform="translate(233.49074, 269.254173)"><g><path d="M 4.984375 0 L 4.78125 -0.921875 L 4.734375 -0.921875 C 4.421875 -0.515625 4.101562 -0.238281 3.78125 -0.09375 C 3.46875 0.0507812 3.070312 0.125 2.59375 0.125 C 1.957031 0.125 1.457031 -0.0390625 1.09375 -0.375 C 0.726562 -0.707031 0.546875 -1.175781 0.546875 -1.78125 C 0.546875 -3.070312 1.582031 -3.75 3.65625 -3.8125 L 4.75 -3.84375 L 4.75 -4.25 C 4.75 -4.75 4.640625 -5.117188 4.421875 -5.359375 C 4.210938 -5.597656 3.867188 -5.71875 3.390625 -5.71875 C 2.847656 -5.71875 2.242188 -5.554688 1.578125 -5.234375 L 1.265625 -5.984375 C 1.585938 -6.148438 1.9375 -6.28125 2.3125 -6.375 C 2.6875 -6.476562 3.066406 -6.53125 3.453125 -6.53125 C 4.210938 -6.53125 4.773438 -6.359375 5.140625 -6.015625 C 5.515625 -5.679688 5.703125 -5.140625 5.703125 -4.390625 L 5.703125 0 Z M 2.78125 -0.6875 C 3.382812 -0.6875 3.859375 -0.851562 4.203125 -1.1875 C 4.554688 -1.519531 4.734375 -1.984375 4.734375 -2.578125 L 4.734375 -3.15625 L 3.75 -3.125 C 2.976562 -3.09375 2.421875 -2.96875 2.078125 -2.75 C 1.742188 -2.539062 1.578125 -2.210938 1.578125 -1.765625 C 1.578125 -1.410156 1.679688 -1.140625 1.890625 -0.953125 C 2.097656 -0.773438 2.394531 -0.6875 2.78125 -0.6875 Z M 2.78125 -0.6875 "/></g></g></g><g fill="#5271ff" fill-opacity="1"><g transform="translate(241.940599, 269.254173)"><g><path d="M 9.21875 0 L 9.21875 -4.171875 C 9.21875 -4.691406 9.109375 -5.078125 8.890625 -5.328125 C 8.671875 -5.585938 8.332031 -5.71875 7.875 -5.71875 C 7.269531 -5.71875 6.820312 -5.539062 6.53125 -5.1875 C 6.238281 -4.84375 6.09375 -4.3125 6.09375 -3.59375 L 6.09375 0 L 5.125 0 L 5.125 -4.171875 C 5.125 -4.691406 5.015625 -5.078125 4.796875 -5.328125 C 4.578125 -5.585938 4.234375 -5.71875 3.765625 -5.71875 C 3.160156 -5.71875 2.710938 -5.535156 2.421875 -5.171875 C 2.140625 -4.804688 2 -4.207031 2 -3.375 L 2 0 L 1.03125 0 L 1.03125 -6.421875 L 1.828125 -6.421875 L 1.984375 -5.546875 L 2.03125 -5.546875 C 2.207031 -5.859375 2.460938 -6.101562 2.796875 -6.28125 C 3.140625 -6.457031 3.515625 -6.546875 3.921875 -6.546875 C 4.929688 -6.546875 5.585938 -6.179688 5.890625 -5.453125 L 5.9375 -5.453125 C 6.132812 -5.785156 6.410156 -6.050781 6.765625 -6.25 C 7.128906 -6.445312 7.546875 -6.546875 8.015625 -6.546875 C 8.742188 -6.546875 9.285156 -6.359375 9.640625 -5.984375 C 10.003906 -5.609375 10.1875 -5.007812 10.1875 -4.1875 L 10.1875 0 Z M 9.21875 0 "/></g></g></g></svg>