<svg width="219" height="365" viewBox="0 0 219 365" fill="none" xmlns="http://www.w3.org/2000/svg">
<g filter="url(#filter0_f_30_424)">
<path d="M-46.2642 6.55079C-49.398 20.3918 -36.1375 32.4713 -22.6256 28.1335C-10.7385 24.3126 0.584847 35.4157 -3.01146 47.3829L-17.8073 96.6185L19.0775 107.703C20.5652 78.9854 49.6049 59.2994 77.2312 69.7253C101.536 78.9049 112.761 108.337 98.9782 131.714L149.306 146.838C194.646 109.071 183.342 36.3887 123.529 15.0126C141.299 -19.199 120.871 -68.3874 84.2145 -79.4031C70.9731 -83.3823 47.2543 -84.1883 35.1876 -79.7302L13.1048 -6.24629C9.51105 5.71237 -6.05033 8.74908 -13.8729 -0.998212C-23.3772 -12.8415 -42.7984 -8.75033 -46.2642 6.55079Z" fill="#7B3EF4"/>
<path d="M137.044 168.553L78.8025 151.244C66.836 147.648 63.8098 132.083 73.5542 124.267C84.6129 115.4 81.8635 97.6753 68.5709 92.6542C53.8348 87.0867 39.7916 101.115 44.415 115.508C48.236 127.406 37.1303 138.721 25.1662 135.125L-24.8606 120.092L-35.7074 156.186C-6.94747 157.677 12.6951 186.762 2.27977 214.336C-6.88364 238.593 -36.2928 249.885 -59.7157 236.077L-78.0912 297.225C-45.5129 341.622 34.4337 332.42 41.0041 277.023C101.601 291.777 154.398 228.205 137.044 168.553Z" fill="#7B3EF4"/>
<path d="M-144.943 58.4143C-132.982 62.0087 -129.947 77.5728 -139.697 85.3931C-151.483 94.8487 -147.505 114.292 -132.14 117.776C-118.267 120.918 -106.221 107.635 -110.556 94.1468C-114.377 82.2535 -103.27 70.9375 -91.3055 74.5329L-41.2787 89.5665L-30.4258 53.4518C-57.5888 52.0644 -75.8908 26.4185 -70.1668 1.13816C-63.6726 -27.5399 -31.3062 -41.0909 -6.41751 -26.4395L11.7162 -86.7822C-20.8621 -131.179 -106.386 -103.419 -112.957 -48.0229C-175.046 -63.1411 -212.214 -13.7409 -195.084 43.3463L-144.943 58.4143Z" fill="#7B3EF4"/>
<path d="M-20.6484 205.675C-15.1078 191.006 -29.0532 176.878 -43.5125 181.524C-55.4048 185.339 -66.7258 174.242 -63.129 162.273L-48.3334 113.039L-85.2385 101.948C-86.6629 129.867 -113.968 148.881 -140.546 140.894C-167.373 132.832 -179.151 101.73 -165.139 77.9371L-210.241 64.3835C-255.983 102.571 -241.992 191.989 -181.645 213.556C-199.416 247.768 -177.083 280.361 -140.427 291.376C-127.185 295.355 -113.63 294.63 -101.563 290.172L-79.2447 215.904C-75.6515 203.947 -60.0886 200.908 -52.2692 210.654C-43.4059 221.703 -25.6736 218.978 -20.6484 205.675Z" fill="#7B3EF4"/>
</g>
<defs>
<filter id="filter0_f_30_424" x="-244.516" y="-115.996" width="428.786" height="448.552" filterUnits="userSpaceOnUse" color-interpolation-filters="sRGB">
<feFlood flood-opacity="0" result="BackgroundImageFix"/>
<feBlend mode="normal" in="SourceGraphic" in2="BackgroundImageFix" result="shape"/>
<feGaussianBlur stdDeviation="3.6" result="effect1_foregroundBlur_30_424"/>
</filter>
</defs>
</svg>
