<svg width="309" height="317" viewBox="0 0 309 317" fill="none" xmlns="http://www.w3.org/2000/svg">
<path d="M144.28 96.1271C142.336 104.711 150.56 112.202 158.94 109.512C166.312 107.143 173.334 114.028 171.104 121.45L161.928 151.985L184.803 158.859C185.726 141.049 203.735 128.84 220.868 135.306C235.942 140.999 242.903 159.253 234.355 173.75L265.568 183.13C293.686 159.708 286.676 114.632 249.581 101.375C260.602 80.1577 247.933 49.6523 225.199 42.8206C216.987 40.3528 202.277 39.853 194.794 42.6178L181.099 88.1906C178.87 95.6071 169.219 97.4904 164.368 91.4454C158.474 84.1005 146.429 86.6377 144.28 96.1271Z" fill="#7B3EF4"/>
<path d="M257.963 196.597L221.843 185.862C214.422 183.632 212.545 173.979 218.588 169.132C225.446 163.633 223.741 152.64 215.498 149.526C206.359 146.073 197.649 154.773 200.517 163.699C202.886 171.078 195.999 178.096 188.579 175.866L157.554 166.542L150.827 188.927C168.663 189.852 180.845 207.89 174.386 224.99C168.703 240.034 150.464 247.037 135.937 238.474L124.541 276.396C144.746 303.93 194.327 298.223 198.401 263.868C235.982 273.017 268.725 233.591 257.963 196.597Z" fill="#7B3EF4"/>
<path d="M83.0819 128.292C90.4998 130.521 92.3815 140.173 86.3353 145.023C79.0255 150.887 81.4929 162.946 91.0217 165.106C99.6253 167.055 107.096 158.817 104.408 150.452C102.038 143.076 108.926 136.058 116.346 138.288L147.372 147.611L154.102 125.214C137.257 124.353 125.906 108.449 129.456 92.7703C133.484 74.9849 153.556 66.5809 168.992 75.6673L180.238 38.2443C160.034 10.7103 106.993 27.9265 102.919 62.2819C64.4123 52.9059 41.3621 83.5427 51.9857 118.947L83.0819 128.292Z" fill="#7B3EF4"/>
<path d="M160.166 219.619C163.602 210.522 154.954 201.76 145.986 204.641C138.611 207.007 131.59 200.125 133.821 192.702L142.997 162.168L120.109 155.29C119.226 172.605 102.292 184.397 85.8089 179.443C69.1708 174.443 61.8669 155.155 70.5565 140.399L42.5856 131.994C14.2174 155.676 22.8941 211.131 60.3198 224.507C49.2989 245.724 63.1493 265.937 85.8826 272.769C94.0946 275.237 102.501 274.787 109.985 272.022L123.826 225.963C126.055 218.547 135.706 216.662 140.556 222.707C146.052 229.559 157.05 227.869 160.166 219.619Z" fill="#7B3EF4"/>
</svg>
