<svg width="202" height="175" viewBox="0 0 202 175" fill="none" xmlns="http://www.w3.org/2000/svg">
<g filter="url(#filter0_d_136_41)">
<path d="M184.799 67.6877C185.621 55.8283 172.414 48.6137 162.929 55.1413C155.127 60.5059 144.486 54.9195 144.486 45.4447V6.46948H115.271C120.329 27.0509 104.652 46.8133 83.613 46.8133C62.3755 46.8133 47.0385 26.8012 52.0203 6.46948H16.317C-8.56222 44.1759 21.1058 106.046 69.6264 108.537C64.1886 137.254 87.5149 156.045 116.533 156.045C127.015 156.045 136.698 152.561 144.487 146.691V87.8993C144.487 78.4338 155.123 72.8319 162.927 78.2021C171.773 84.2904 184.053 78.4431 184.799 67.6877Z" fill="#6F29FB"/>
<path fill-rule="evenodd" clip-rule="evenodd" d="M61.6835 83.7163C65.3724 83.7058 68.9338 82.3658 71.7147 79.942C74.4956 77.5182 76.3094 74.1731 76.8235 70.5202C76.8586 70.5202 76.8948 70.5279 76.931 70.5356C76.9673 70.5432 77.0035 70.5509 77.0386 70.5509C77.9982 70.5516 78.9316 70.2376 79.6958 69.6572C80.46 69.0768 81.0129 68.2619 81.2698 67.3373C81.5267 66.4127 81.4735 65.4293 81.1182 64.5379C80.763 63.6464 80.1254 62.896 79.303 62.4015L57.3609 49.2362C56.3634 48.637 55.1687 48.4585 54.0396 48.7399C52.9106 49.0214 51.9395 49.7397 51.3399 50.737C50.816 51.6249 50.6262 52.6706 50.8048 53.686C50.9834 54.7013 51.5187 55.6195 52.3142 56.2753C49.7719 58.2233 47.9052 60.9202 46.9772 63.9856C46.0492 67.051 46.1067 70.3304 47.1415 73.3614C48.1764 76.3924 50.1366 79.0222 52.7455 80.8799C55.3545 82.7377 58.4807 83.7298 61.6835 83.7163ZM56.9581 73.182C58.2379 74.3712 59.9376 75.0034 61.6835 74.9394C62.7808 74.9399 63.8608 74.666 64.8253 74.1427C65.7898 73.6195 66.6082 72.8633 67.206 71.9432C67.8039 71.0231 68.1623 69.9681 68.2485 68.8742C68.3348 67.7803 68.1462 66.6821 67.7 65.6797L61.2007 61.7739C59.4549 61.838 57.806 62.5929 56.6168 63.8726C55.4276 65.1524 54.7954 66.8522 54.8595 68.5981C54.9235 70.3439 55.6784 71.9928 56.9581 73.182Z" fill="#261743"/>
<path d="M68.7505 101.294C69.9076 101.422 70.9663 102.005 71.6938 102.914C72.32 103.739 73.1288 104.409 74.0568 104.87C74.9849 105.331 76.007 105.57 77.0433 105.57C78.0795 105.57 79.1016 105.331 80.0297 104.87C80.9577 104.409 81.7665 103.739 82.3928 102.914C83.8265 101.039 85.6731 99.5189 87.7893 98.473C89.9055 97.4271 92.2343 96.883 94.5948 96.883C96.9553 96.883 99.2841 97.4271 101.4 98.473C103.517 99.5189 105.363 101.039 106.797 102.914C107.482 103.825 107.785 104.968 107.642 106.099C107.499 107.23 106.922 108.261 106.032 108.974C105.143 109.687 104.01 110.026 102.875 109.919C101.74 109.811 100.691 109.266 99.9509 108.399C99.3238 107.574 98.5142 106.904 97.5854 106.443C96.6566 105.983 95.6338 105.743 94.597 105.743C93.5602 105.743 92.5374 105.983 91.6086 106.443C90.6798 106.904 89.8702 107.574 89.2431 108.399C87.8094 110.275 85.9628 111.794 83.8466 112.84C81.7304 113.886 79.4016 114.43 77.0411 114.43C74.6805 114.43 72.3517 113.886 70.2355 112.84C68.1194 111.794 66.2727 110.275 64.839 108.399C64.1116 107.49 63.775 106.33 63.9034 105.173C64.0318 104.015 64.6146 102.957 65.5236 102.229C66.4326 101.502 67.5933 101.165 68.7505 101.294Z" fill="#261743"/>
<path fill-rule="evenodd" clip-rule="evenodd" d="M94.7147 70.5334C94.7475 70.5269 94.7802 70.5204 94.812 70.5184C95.1561 73.0096 96.1082 75.3778 97.5843 77.414C99.0604 79.4501 101.015 81.0916 103.276 82.1935C105.536 83.2953 108.033 83.8237 110.547 83.732C113.06 83.6403 115.512 82.9313 117.686 81.6676C119.861 80.4039 121.69 78.6243 123.014 76.486C124.338 74.3477 125.115 71.9164 125.276 69.4067C125.438 66.897 124.979 64.3861 123.941 62.0957C122.902 59.8052 121.316 57.8057 119.321 56.2735C120.117 55.6178 120.652 54.6996 120.831 53.6843C121.009 52.6689 120.82 51.6232 120.296 50.7353C119.696 49.738 118.725 49.0197 117.596 48.7382C116.467 48.4568 115.272 48.6353 114.275 49.2345L92.3326 62.3998C91.5102 62.8943 90.8725 63.6448 90.5173 64.5362C90.1621 65.4277 90.1088 66.411 90.3658 67.3356C90.6227 68.2602 91.1756 69.0751 91.9398 69.6555C92.704 70.2359 93.6374 70.5498 94.597 70.5491C94.6354 70.5491 94.6751 70.5412 94.7147 70.5334ZM106.818 74.1407C107.782 74.6635 108.86 74.9374 109.957 74.9376C111.694 74.9859 113.38 74.3456 114.647 73.1562C115.915 71.9668 116.661 70.3248 116.722 68.5879C116.784 66.8509 116.157 65.1599 114.978 63.8832C113.799 62.6066 112.162 61.8478 110.426 61.7722L103.94 65.6867C103.496 66.6888 103.309 67.786 103.396 68.8786C103.483 69.9713 103.842 71.0249 104.439 71.9438C105.037 72.8627 105.855 73.6179 106.818 74.1407Z" fill="#261743"/>
</g>
<defs>
<filter id="filter0_d_136_41" x="0.327026" y="0.469482" width="201.509" height="173.576" filterUnits="userSpaceOnUse" color-interpolation-filters="sRGB">
<feFlood flood-opacity="0" result="BackgroundImageFix"/>
<feColorMatrix in="SourceAlpha" type="matrix" values="0 0 0 0 0 0 0 0 0 0 0 0 0 0 0 0 0 0 127 0" result="hardAlpha"/>
<feOffset dx="5" dy="6"/>
<feGaussianBlur stdDeviation="6"/>
<feComposite in2="hardAlpha" operator="out"/>
<feColorMatrix type="matrix" values="0 0 0 0 0 0 0 0 0 0 0 0 0 0 0 0 0 0 0.25 0"/>
<feBlend mode="normal" in2="BackgroundImageFix" result="effect1_dropShadow_136_41"/>
<feBlend mode="normal" in="SourceGraphic" in2="effect1_dropShadow_136_41" result="shape"/>
</filter>
</defs>
</svg>
