<svg width="212" height="179" viewBox="0 0 212 179" fill="none" xmlns="http://www.w3.org/2000/svg">
<g filter="url(#filter0_d_155_15)">
<path d="M7.6522 99.4776C8.41451 110.464 20.9678 116.48 30.0413 110.239C38.0227 104.744 48.9182 110.467 48.9182 120.164V160.062H78.8073C73.4991 138.386 90.6852 117.269 113.546 118.848C133.66 120.242 148.577 139.61 143.554 160.062H184.336C209.599 121.866 184.964 70.3719 135.735 67.844C141.302 38.4483 115.133 6.45312 85.429 6.45312C74.699 6.45312 56.8907 11.1516 48.9182 17.16V76.7067C48.9182 86.3973 38.0309 92.1298 30.04 86.6325C20.3311 79.9532 6.81062 87.3314 7.6522 99.4776Z" fill="#7B3EF4"/>
<path d="M83.1329 67.4331C87.1454 67.4397 91.0078 65.9079 93.9253 63.1531C96.8427 60.3983 98.5932 56.63 98.8165 52.6236C99.0398 48.6173 97.7189 44.6779 95.1257 41.6159C92.5325 38.5539 88.8643 36.6024 84.8759 36.163C85.2038 34.6312 85.3745 33.0634 85.379 31.4956C85.379 30.3042 84.9057 29.1616 84.0632 28.3191C83.2208 27.4767 82.0782 27.0034 80.8868 27.0034C79.6954 27.0034 78.5528 27.4767 77.7103 28.3191C76.8679 29.1616 76.3946 30.3042 76.3946 31.4956C76.3946 35.0698 74.9747 38.4977 72.4474 41.025C69.92 43.5524 66.4922 44.9722 62.918 44.9722C61.7266 44.9722 60.584 45.4455 59.7415 46.2879C58.8991 47.1304 58.4258 48.273 58.4258 49.4644C58.4258 50.6558 58.8991 51.7984 59.7415 52.6408C60.584 53.4833 61.7266 53.9566 62.918 53.9566C64.4903 53.9521 66.0536 53.7814 67.5854 53.4534C68.006 57.287 69.8238 60.8314 72.6915 63.41C75.5593 65.9886 79.2763 67.4208 83.1329 67.4331ZM80.4376 45.5517C81.2866 45.1698 82.203 44.9722 83.1329 44.9722C84.4656 44.9722 85.7684 45.3674 86.8765 46.1078C87.9846 46.8482 88.8482 47.9006 89.3582 49.1318C89.8682 50.3631 90.0017 51.7179 89.7417 53.025C89.4817 54.3321 88.8399 55.5327 87.8976 56.4751C86.9552 57.4175 85.7546 58.0592 84.4475 58.3192C83.1404 58.5792 81.7855 58.4458 80.5542 57.9358C79.323 57.4258 78.2706 56.5621 77.5302 55.454C76.7898 54.3459 76.3946 53.0431 76.3946 51.7104C76.3946 50.7805 76.5967 49.8642 76.9741 49.0151C77.2436 48.804 77.4233 48.5165 77.6973 48.2919C78.3981 47.672 79.0629 47.0071 79.6828 46.3064C79.912 46.0278 80.204 45.8257 80.4376 45.5517ZM103.348 71.9253C97.4754 72.0191 91.698 73.4229 86.4373 76.0342C81.1767 78.6455 76.5654 82.3984 72.9401 87.0191C72.5625 87.4728 72.278 87.9963 72.1028 88.5599C71.9276 89.1235 71.8651 89.7161 71.9189 90.3039C71.9728 90.8916 72.1418 91.463 72.4164 91.9854C72.6911 92.5078 73.0659 92.9711 73.5196 93.3486C74.4358 94.1111 75.6173 94.4785 76.8043 94.3698C77.3921 94.316 77.9635 94.1469 78.4859 93.8723C79.0083 93.5976 79.4715 93.2228 79.8491 92.7691C82.5632 89.0894 86.1036 86.0984 90.1852 84.0372C94.2667 81.976 98.7753 80.9021 103.348 80.9021C107.92 80.9021 112.429 81.976 116.51 84.0372C120.592 86.0984 124.132 89.0894 126.846 92.7691C127.224 93.2228 127.687 93.5976 128.21 93.8723C128.732 94.1469 129.304 94.316 129.891 94.3698C130.479 94.4236 131.072 94.3611 131.635 94.1859C132.199 94.0107 132.723 93.7262 133.176 93.3486C133.63 92.9711 134.005 92.5078 134.279 91.9854C134.554 91.463 134.723 90.8916 134.777 90.3039C134.831 89.7161 134.768 89.1235 134.593 88.5599C134.418 87.9963 134.133 87.4728 133.756 87.0191C130.13 82.3984 125.519 78.6455 120.258 76.0342C114.997 73.4229 109.22 72.0191 103.348 71.9253Z" fill="#261743"/>
<path d="M110.109 91.7969C108.072 90.5562 105.733 89.8999 103.348 89.8999C100.963 89.8999 98.6243 90.5562 96.5874 91.7969C95.5774 92.4076 94.8483 93.3912 94.5577 94.535C94.2671 95.679 94.4384 96.8913 95.0345 97.9099C95.6306 98.9286 96.6036 99.6717 97.7432 99.9787C98.8828 100.286 100.097 100.132 101.125 99.5505C102.472 98.643 104.224 98.643 105.572 99.5505C106.081 99.8585 106.647 100.062 107.236 100.15C107.825 100.237 108.425 100.207 109.002 100.06C109.579 99.9136 110.121 99.6537 110.597 99.2958C111.073 98.9378 111.473 98.4889 111.773 97.975C112.074 97.4612 112.269 96.8927 112.348 96.3026C112.428 95.7126 112.388 95.1127 112.234 94.5378C112.079 93.9629 111.811 93.4246 111.446 92.9541C111.082 92.4835 110.627 92.0902 110.109 91.7969ZM130.301 31.4937C130.301 30.3023 129.828 29.1597 128.986 28.3172C128.143 27.4747 127.001 27.0015 125.809 27.0015C124.618 27.0015 123.475 27.4747 122.633 28.3172C121.79 29.1597 121.317 30.3023 121.317 31.4937C121.321 33.0659 121.492 34.6292 121.82 36.1611C118.881 36.4817 116.092 37.6267 113.776 39.464C111.459 41.3013 109.709 43.7561 108.728 46.5451C107.746 49.3341 107.573 52.3438 108.229 55.2269C108.884 58.1101 110.341 60.7492 112.432 62.8399C114.522 64.9305 117.162 66.3876 120.045 67.043C122.928 67.6984 125.937 67.5253 128.726 66.5439C131.516 65.5624 133.97 63.8125 135.808 61.496C137.645 59.1795 138.79 56.3908 139.111 53.4515C140.642 53.7795 142.21 53.9502 143.778 53.9547C144.969 53.9547 146.112 53.4814 146.954 52.6389C147.797 51.7965 148.27 50.6539 148.27 49.4625C148.27 48.271 147.797 47.1284 146.954 46.286C146.112 45.4435 144.969 44.9703 143.778 44.9703C140.204 44.9703 136.776 43.5504 134.249 41.0231C131.721 38.4957 130.301 35.0679 130.301 31.4937ZM129.722 49.0132C130.099 49.8623 130.297 50.7787 130.301 51.7085C130.301 53.0413 129.906 54.344 129.166 55.4521C128.425 56.5603 127.373 57.4239 126.142 57.9339C124.91 58.4439 123.556 58.5774 122.248 58.3174C120.941 58.0574 119.741 57.4156 118.798 56.4732C117.856 55.5309 117.214 54.3302 116.954 53.0231C116.694 51.716 116.828 50.3612 117.338 49.1299C117.848 47.8987 118.711 46.8463 119.819 46.1059C120.928 45.3654 122.23 44.9703 123.563 44.9703C124.493 44.9703 125.409 45.1679 126.258 45.5497C126.474 45.8238 126.766 46.0259 126.995 46.2865C127.615 46.9873 128.28 47.6521 128.981 48.272C129.255 48.4966 129.452 48.7841 129.722 49.0132Z" fill="#261743"/>
<path d="M110.109 91.7969C108.072 90.5562 105.733 89.8999 103.348 89.8999C100.963 89.8999 98.6243 90.5562 96.5874 91.7969C95.5774 92.4076 94.8483 93.3912 94.5577 94.535C94.2671 95.679 94.4384 96.8913 95.0345 97.9099C95.6306 98.9286 96.6036 99.6717 97.7432 99.9787C98.8828 100.286 100.097 100.132 101.125 99.5505C102.472 98.643 104.224 98.643 105.572 99.5505C106.081 99.8585 106.647 100.062 107.236 100.15C107.825 100.237 108.425 100.207 109.002 100.06C109.579 99.9136 110.121 99.6537 110.597 99.2958C111.073 98.9378 111.473 98.4889 111.773 97.975C112.074 97.4612 112.269 96.8927 112.348 96.3026C112.428 95.7126 112.388 95.1127 112.234 94.5378C112.079 93.9629 111.811 93.4246 111.446 92.9541C111.082 92.4835 110.627 92.0902 110.109 91.7969ZM130.301 31.4937C130.301 30.3023 129.828 29.1597 128.986 28.3172C128.143 27.4747 127.001 27.0015 125.809 27.0015C124.618 27.0015 123.475 27.4747 122.633 28.3172C121.79 29.1597 121.317 30.3023 121.317 31.4937C121.321 33.0659 121.492 34.6292 121.82 36.1611C118.881 36.4817 116.092 37.6267 113.776 39.464C111.459 41.3013 109.709 43.7561 108.728 46.5451C107.746 49.3341 107.573 52.3438 108.229 55.2269C108.884 58.1101 110.341 60.7492 112.432 62.8399C114.522 64.9305 117.162 66.3876 120.045 67.043C122.928 67.6984 125.937 67.5253 128.726 66.5439C131.516 65.5624 133.97 63.8125 135.808 61.496C137.645 59.1795 138.79 56.3908 139.111 53.4515C140.642 53.7795 142.21 53.9502 143.778 53.9547C144.969 53.9547 146.112 53.4814 146.954 52.6389C147.797 51.7965 148.27 50.6539 148.27 49.4625C148.27 48.271 147.797 47.1284 146.954 46.286C146.112 45.4435 144.969 44.9703 143.778 44.9703C140.204 44.9703 136.776 43.5504 134.249 41.0231C131.721 38.4957 130.301 35.0679 130.301 31.4937ZM129.722 49.0132C130.099 49.8623 130.297 50.7787 130.301 51.7085C130.301 53.0413 129.906 54.344 129.166 55.4521C128.425 56.5603 127.373 57.4239 126.142 57.9339C124.91 58.4439 123.556 58.5774 122.248 58.3174C120.941 58.0574 119.741 57.4156 118.798 56.4732C117.856 55.5309 117.214 54.3302 116.954 53.0231C116.694 51.716 116.828 50.3612 117.338 49.1299C117.848 47.8987 118.711 46.8463 119.819 46.1059C120.928 45.3654 122.23 44.9703 123.563 44.9703C124.493 44.9703 125.409 45.1679 126.258 45.5497C126.474 45.8238 126.766 46.0259 126.995 46.2865C127.615 46.9873 128.28 47.6521 128.981 48.272C129.255 48.4966 129.452 48.7841 129.722 49.0132Z" fill="#261743"/>
</g>
<defs>
<filter id="filter0_d_155_15" x="0.614746" y="0.453125" width="210.771" height="177.609" filterUnits="userSpaceOnUse" color-interpolation-filters="sRGB">
<feFlood flood-opacity="0" result="BackgroundImageFix"/>
<feColorMatrix in="SourceAlpha" type="matrix" values="0 0 0 0 0 0 0 0 0 0 0 0 0 0 0 0 0 0 127 0" result="hardAlpha"/>
<feOffset dx="5" dy="6"/>
<feGaussianBlur stdDeviation="6"/>
<feComposite in2="hardAlpha" operator="out"/>
<feColorMatrix type="matrix" values="0 0 0 0 0 0 0 0 0 0 0 0 0 0 0 0 0 0 0.25 0"/>
<feBlend mode="normal" in2="BackgroundImageFix" result="effect1_dropShadow_155_15"/>
<feBlend mode="normal" in="SourceGraphic" in2="effect1_dropShadow_155_15" result="shape"/>
</filter>
</defs>
</svg>
