<svg width="192" height="64" viewBox="0 0 192 64" fill="none" xmlns="http://www.w3.org/2000/svg">
<path d="M86.6552 61.4536C86.1085 61.9456 85.5072 62.3283 84.8511 62.6017C84.1951 62.875 83.5459 63.0117 82.9035 63.0117C82.0425 63.0117 81.2292 62.7657 80.4639 62.2737C79.6985 61.7816 79.0083 61.0709 78.3932 60.1415H78.2702C76.8898 60.1415 75.6187 59.8203 74.457 59.178C73.3089 58.5219 72.4 57.6335 71.7303 56.5128C71.0606 55.3784 70.7258 54.1415 70.7258 52.8021C70.7258 51.4627 71.0606 50.2394 71.7303 49.1324C72.4 48.0116 73.3089 47.1301 74.457 46.4877C75.6051 45.8453 76.8761 45.5241 78.2702 45.5241C79.6506 45.5241 80.9149 45.8453 82.063 46.4877C83.2247 47.1301 84.1404 48.0116 84.8101 49.1324C85.4798 50.2394 85.8147 51.4627 85.8147 52.8021C85.8147 53.9091 85.5823 54.941 85.1176 55.8978C84.6666 56.8545 84.0379 57.6745 83.2315 58.3579C82.4251 59.0413 81.5026 59.5333 80.4639 59.834C81.3659 60.8044 82.2543 61.2896 83.129 61.2896C83.9217 61.2896 84.8238 60.8727 85.8352 60.039L86.6552 61.4536ZM72.7144 52.8021C72.7144 53.8135 72.9672 54.7429 73.4729 55.5903C73.9786 56.4376 74.6552 57.1142 75.5026 57.6199C76.3636 58.1119 77.293 58.3579 78.2907 58.3579C79.2885 58.3579 80.2042 58.1119 81.0379 57.6199C81.8853 57.1142 82.555 56.4376 83.047 55.5903C83.5527 54.7429 83.8056 53.8135 83.8056 52.8021C83.8056 51.7907 83.5527 50.8681 83.047 50.0344C82.555 49.187 81.8853 48.5173 81.0379 48.0253C80.2042 47.5333 79.2885 47.2872 78.2907 47.2872C77.293 47.2872 76.3636 47.5333 75.5026 48.0253C74.6552 48.5173 73.9786 49.187 73.4729 50.0344C72.9672 50.8681 72.7144 51.7907 72.7144 52.8021Z" fill="black"/>
<path d="M92.9751 54.1347C92.9751 55.4604 93.3373 56.4991 94.0616 57.2509C94.7997 57.9889 95.8111 58.3579 97.0958 58.3579C98.3669 58.3579 99.3646 57.9889 100.089 57.2509C100.813 56.4991 101.176 55.4604 101.176 54.1347V45.6471H103.144V54.1347C103.144 56.0071 102.604 57.4764 101.524 58.5424C100.458 59.6085 98.9819 60.1415 97.0958 60.1415C95.196 60.1415 93.7063 59.6085 92.6265 58.5424C91.5468 57.4764 91.0069 56.0071 91.0069 54.1347V45.6471H92.9751V54.1347Z" fill="black"/>
<path d="M109.391 45.6471H111.359V59.998H109.391V45.6471Z" fill="black"/>
<path d="M116.974 45.6471H128.516V47.1027L119.332 58.2144H128.619L128.598 59.998H116.708V58.5424L125.892 47.4308H116.954L116.974 45.6471Z" fill="black"/>
<path d="M108.819 24.7184C109.015 27.5533 112.254 29.1056 114.596 27.4951C116.655 26.0773 119.467 27.554 119.467 30.0562V40.351H127.179C125.809 34.758 130.244 29.3092 136.143 29.7165C141.333 30.0762 145.181 35.0737 143.885 40.351H154.409C160.927 30.4953 154.571 17.2082 141.868 16.556C143.304 8.97096 136.552 0.715225 128.887 0.715225C126.119 0.715225 121.524 1.92757 119.467 3.47792V18.8428C119.467 21.3433 116.657 22.8224 114.595 21.404C112.09 19.6805 108.601 21.5843 108.819 24.7184Z" fill="#7B3EF4"/>
<path d="M87.6743 1.31668C88.6177 1.31684 89.3827 2.08167 89.3827 3.02512V23.8409C89.3828 26.2461 90.0936 28.1782 91.5149 29.636C92.9362 31.0936 94.7407 31.8224 96.9272 31.8225C99.0773 31.8224 100.809 31.1115 102.121 29.6903C103.469 28.2325 104.143 26.2826 104.143 23.8409V3.02512C104.143 2.08178 104.908 1.31702 105.851 1.31668H112.439C113.383 1.31668 114.148 2.08158 114.148 3.02512V18.4052C114.137 18.4024 114.127 18.4005 114.117 18.3977C114.017 18.3711 113.918 18.3465 113.818 18.3251C113.8 18.3214 113.783 18.3171 113.765 18.3135C113.651 18.29 113.536 18.271 113.422 18.2542C113.416 18.2534 113.41 18.2517 113.404 18.2509C113.291 18.2348 113.178 18.2223 113.066 18.2125C113.044 18.2106 113.022 18.2092 113.001 18.2075C112.785 18.1912 112.569 18.1862 112.355 18.1925C112.331 18.1932 112.308 18.1932 112.284 18.1942C112.181 18.1984 112.078 18.2058 111.976 18.215C111.952 18.2172 111.929 18.2193 111.905 18.2217C111.803 18.2321 111.701 18.2447 111.599 18.2601C111.58 18.263 111.56 18.2669 111.541 18.2701C111.448 18.285 111.356 18.302 111.265 18.321C111.246 18.3247 111.228 18.3279 111.21 18.3318C111.106 18.3544 111.002 18.38 110.899 18.4077C110.884 18.4118 110.869 18.4153 110.854 18.4194C110.746 18.4495 110.638 18.4829 110.531 18.5187C110.526 18.5204 110.521 18.5219 110.515 18.5237C110.414 18.5578 110.314 18.5947 110.215 18.6338C110.195 18.6417 110.175 18.6499 110.155 18.658C110.062 18.6958 109.969 18.7352 109.878 18.7773C109.866 18.7829 109.854 18.7883 109.841 18.794C109.746 18.8385 109.653 18.8858 109.56 18.9349C109.541 18.9453 109.521 18.9561 109.502 18.9666C109.408 19.0178 109.315 19.071 109.223 19.1268C109.217 19.1306 109.211 19.1347 109.205 19.1385C109.117 19.1927 109.03 19.2494 108.945 19.3078C108.932 19.3165 108.919 19.3249 108.906 19.3337C108.818 19.3952 108.731 19.4588 108.645 19.5247C108.633 19.5344 108.62 19.5441 108.608 19.5539C108.525 19.6185 108.444 19.6846 108.365 19.7533C108.346 19.7699 108.327 19.7873 108.308 19.8042C108.151 19.944 108.001 20.0924 107.858 20.248C107.845 20.2619 107.832 20.2756 107.819 20.2897C107.75 20.367 107.681 20.4456 107.615 20.5266C107.6 20.5452 107.586 20.5645 107.571 20.5833C107.508 20.6619 107.447 20.7417 107.388 20.8236C107.373 20.845 107.358 20.867 107.343 20.8886C107.295 20.9567 107.249 21.0261 107.205 21.0963C107.19 21.1192 107.175 21.1417 107.16 21.1647C107.103 21.2575 107.048 21.3521 106.995 21.4484C106.986 21.4654 106.976 21.4821 106.967 21.4993C106.916 21.5946 106.868 21.6918 106.822 21.7904C106.818 21.7979 106.814 21.8054 106.811 21.8129C106.763 21.9155 106.718 22.0197 106.676 22.1257C106.668 22.1459 106.661 22.1663 106.653 22.1866C106.618 22.278 106.585 22.3706 106.555 22.4644C106.549 22.4806 106.543 22.4965 106.538 22.5128L106.52 22.5729C106.493 22.6611 106.467 22.7504 106.444 22.8407C106.437 22.8675 106.43 22.8945 106.424 22.9216C106.337 23.2781 106.281 23.6499 106.258 24.0352C106.256 24.0563 106.255 24.0775 106.254 24.0986C106.253 24.1324 106.251 24.1664 106.25 24.2004C106.249 24.2381 106.248 24.2759 106.248 24.3138C106.247 24.3435 106.246 24.3733 106.246 24.4031V24.4723C106.246 24.499 106.247 24.5257 106.248 24.5524C106.25 24.6657 106.254 24.78 106.262 24.8953L106.281 25.1205C106.366 25.9358 106.599 26.6846 106.947 27.3512C106.95 27.3573 106.954 27.3633 106.957 27.3695C107.094 27.6301 107.249 27.8776 107.419 28.1119C107.425 28.121 107.431 28.1305 107.438 28.1395C107.465 28.1767 107.495 28.2122 107.523 28.2488C107.57 28.3092 107.617 28.3688 107.666 28.4273C107.699 28.4672 107.733 28.5067 107.767 28.5457C107.812 28.5969 107.857 28.6471 107.904 28.6967C107.939 28.7341 107.973 28.772 108.009 28.8085C108.062 28.8624 108.117 28.9143 108.171 28.9662C108.227 29.0186 108.283 29.0702 108.34 29.1205C108.392 29.1668 108.445 29.2128 108.499 29.2573C108.546 29.2957 108.593 29.3329 108.641 29.3699C108.683 29.4026 108.726 29.4343 108.769 29.4659C108.819 29.5028 108.869 29.5397 108.92 29.5751C108.961 29.6029 109.002 29.6292 109.042 29.656C109.138 29.7191 109.235 29.7793 109.334 29.8371C109.38 29.8641 109.427 29.8913 109.474 29.9172C109.531 29.949 109.59 29.9789 109.649 30.0089C109.695 30.0328 109.742 30.0563 109.79 30.079C109.838 30.1024 109.887 30.126 109.937 30.1482C110.014 30.1831 110.093 30.2157 110.172 30.2475C110.201 30.2593 110.23 30.2728 110.259 30.2842C110.356 30.3217 110.455 30.3558 110.554 30.3885C110.618 30.4098 110.684 30.4292 110.749 30.4485C110.797 30.4627 110.845 30.4764 110.893 30.4894C110.95 30.5048 111.007 30.5199 111.064 30.5336C111.127 30.5487 111.19 30.5614 111.253 30.5745C111.305 30.5853 111.357 30.5975 111.409 30.607C111.513 30.6261 111.618 30.6425 111.723 30.6563C111.772 30.6626 111.82 30.6669 111.869 30.6721C111.937 30.6794 112.005 30.6862 112.074 30.6913C112.131 30.6955 112.189 30.6987 112.246 30.7013C112.303 30.7039 112.359 30.7053 112.415 30.7063C112.476 30.7074 112.537 30.7086 112.598 30.708C112.698 30.7069 112.797 30.7031 112.897 30.6971C112.904 30.6967 112.911 30.6976 112.918 30.6971C112.658 31.3502 112.359 31.981 112.016 32.5874C110.631 35.0657 108.626 36.9799 106.002 38.3284C103.415 39.6768 100.371 40.3513 96.8721 40.3513C93.3736 40.3512 90.2938 39.6767 87.6334 38.3284C85.0094 36.9799 82.9674 35.0657 81.5096 32.5874C80.0884 30.0728 79.3782 27.1571 79.3782 23.8409V3.02512C79.3782 2.08168 80.1432 1.31685 81.0866 1.31668H87.6743ZM171.116 0.715225C175.015 0.715225 178.532 1.57178 181.667 3.28455C184.837 4.99746 187.316 7.34847 189.102 10.3369C190.924 13.3255 191.836 16.6789 191.836 20.3965C191.836 24.1504 190.924 27.5403 189.102 30.5653C187.316 33.5902 184.837 35.9776 181.667 37.7269C178.532 39.4761 175.015 40.3513 171.116 40.3513C167.216 40.3512 163.681 39.4941 160.51 37.7811C159.942 37.464 159.396 37.125 158.871 36.7659C161.134 28.9748 157.742 20.6413 150.741 16.545C151.152 14.3255 151.928 12.2557 153.075 10.3369C154.897 7.34838 157.376 4.99751 160.51 3.28455C163.681 1.57162 167.216 0.715275 171.116 0.715225ZM8.116 1.31668C8.65141 1.31668 9.15618 1.56782 9.47908 1.99488L23.3226 20.308C24.3118 21.6167 26.3977 20.9148 26.3941 19.2745L26.3557 3.02929C26.3535 2.08427 27.1192 1.31685 28.0642 1.31668H33.9369C34.8804 1.31674 35.6454 2.08161 35.6454 3.02512V37.9321C35.6452 38.8755 34.8803 39.6405 33.9369 39.6406H27.7463C27.2121 39.6405 26.7079 39.3904 26.3849 38.9649L12.5823 20.7777C11.5927 19.474 9.51338 20.1737 9.51328 21.8104V37.9321C9.51312 38.8754 8.74815 39.6404 7.80485 39.6406H1.87287C0.929568 39.6404 0.164594 38.8754 0.164429 37.9321V3.02512C0.164429 2.08168 0.929466 1.31685 1.87287 1.31668H8.116ZM71.666 1.31668C72.6096 1.31668 73.3745 2.08158 73.3745 3.02512V7.58985C73.3745 8.53339 72.6096 9.29829 71.666 9.29829H54.8553C53.9119 9.2985 53.1469 10.0634 53.1468 11.0067V14.7514C53.1468 15.6949 53.9119 16.4597 54.8553 16.4599H69.6982C70.6416 16.4599 71.4064 17.2249 71.4066 18.1683V22.6838C71.4066 23.6254 70.6447 24.3894 69.7032 24.3923L54.8503 24.4373C53.9089 24.4403 53.1468 25.2043 53.1468 26.1457V29.9497C53.1468 30.8931 53.9119 31.6579 54.8553 31.6581H72.2133C73.1566 31.6582 73.9215 32.4232 73.9217 33.3666V37.9321C73.9215 38.8755 73.1566 39.6405 72.2133 39.6406H44.8507C43.9074 39.6404 43.1425 38.8754 43.1423 37.9321V3.02512C43.1423 2.08168 43.9073 1.31685 44.8507 1.31668H71.666ZM171.225 9.18901C169.33 9.18907 167.562 9.68154 165.922 10.6655C164.319 11.6496 163.043 13.0163 162.096 14.7656C161.148 16.4785 160.674 18.3734 160.674 20.4507C160.674 22.5645 161.148 24.4965 162.096 26.2458C163.08 27.9588 164.374 29.3263 165.977 30.3468C167.581 31.3306 169.33 31.8224 171.225 31.8225C173.12 31.8225 174.852 31.3307 176.419 30.3468C178.022 29.3263 179.28 27.9588 180.191 26.2458C181.102 24.4965 181.557 22.5645 181.557 20.4507C181.557 18.3734 181.102 16.4785 180.191 14.7656C179.28 13.0163 178.022 11.6496 176.419 10.6655C174.852 9.68157 173.12 9.18901 171.225 9.18901Z" fill="black"/>
</svg>
