<svg width="162" height="214" viewBox="0 0 162 214" fill="none" xmlns="http://www.w3.org/2000/svg">
<g filter="url(#filter0_d_153_5)">
<path d="M134.413 46.518L88.7251 46.6569C79.3293 46.6569 73.7815 36.1027 79.1075 28.3654C85.1524 19.5866 79.3367 7.41747 68.6774 6.67822C56.8605 5.85785 49.7832 18.9991 56.2275 28.3636C61.5541 36.1051 56.0051 46.6569 46.6111 46.6569H7.33118V74.9973C28.3652 69.8472 48.8049 86.5415 47.2717 108.653C45.9222 128.104 27.1871 142.601 7.33118 137.726V185.738C40.4003 210.66 95.9819 186.731 88.7251 145.416C135.557 142.927 159.82 85.7199 134.413 46.518Z" fill="#9F76F2"/>
<path d="M124.279 72.8011C126.048 71.0315 127.042 68.6313 127.042 66.1287C127.042 64.8774 127.54 63.6774 128.424 62.7926C129.309 61.9078 130.509 61.4106 131.76 61.4106C133.012 61.4106 134.212 61.9078 135.097 62.7926C135.981 63.6774 136.478 64.8774 136.478 66.1287C136.478 71.1338 134.49 75.9342 130.951 79.4734C127.412 83.0126 122.612 85.0009 117.606 85.0009C112.601 85.0009 107.801 83.0126 104.262 79.4734C100.722 75.9342 98.7342 71.1338 98.7342 66.1287C98.7342 64.8774 99.2312 63.6774 100.116 62.7926C101.001 61.9078 102.201 61.4106 103.452 61.4106C104.703 61.4106 105.904 61.9078 106.788 62.7926C107.673 63.6774 108.17 64.8774 108.17 66.1287C108.17 68.6313 109.164 71.0315 110.934 72.8011C112.704 74.5707 115.104 75.5649 117.606 75.5649C120.109 75.5649 122.509 74.5707 124.279 72.8011Z" fill="#261743"/>
<path d="M87.9162 62.7926C88.8011 63.6774 89.2981 64.8774 89.2981 66.1287C89.2981 71.1338 87.3098 75.9342 83.7706 79.4734C80.2314 83.0126 75.4312 85.0009 70.426 85.0009C65.4208 85.0009 60.6207 83.0126 57.0815 79.4734C53.5423 75.9342 51.554 71.1338 51.554 66.1287C51.554 64.8774 52.051 63.6774 52.9358 62.7926C53.8206 61.9078 55.0207 61.4106 56.272 61.4106C57.5233 61.4106 58.7233 61.9078 59.6081 62.7926C60.4929 63.6774 60.99 64.8774 60.99 66.1287C60.99 68.6313 61.9841 71.0315 63.7537 72.8011C65.5233 74.5707 67.9234 75.5649 70.426 75.5649C72.9286 75.5649 75.3287 74.5707 77.0983 72.8011C78.8679 71.0315 79.8621 68.6313 79.8621 66.1287C79.8621 64.8774 80.3592 63.6774 81.244 62.7926C82.1288 61.9078 83.3288 61.4106 84.5801 61.4106C85.8314 61.4106 87.0314 61.9078 87.9162 62.7926Z" fill="#261743"/>
<path d="M70.4264 99.1533H117.607C118.858 99.1533 120.058 99.6504 120.943 100.535C121.828 101.42 122.325 102.62 122.325 103.871C122.325 105.123 121.828 106.323 120.943 107.208C120.058 108.092 118.858 108.589 117.607 108.589H70.4264C69.1751 108.589 67.9751 108.092 67.0903 107.208C66.2055 106.323 65.7084 105.123 65.7084 103.871C65.7084 102.62 66.2055 101.42 67.0903 100.535C67.9751 99.6504 69.1751 99.1533 70.4264 99.1533Z" fill="#261743"/>
</g>
<defs>
<filter id="filter0_d_153_5" x="0.331177" y="0.641602" width="161.338" height="213.232" filterUnits="userSpaceOnUse" color-interpolation-filters="sRGB">
<feFlood flood-opacity="0" result="BackgroundImageFix"/>
<feColorMatrix in="SourceAlpha" type="matrix" values="0 0 0 0 0 0 0 0 0 0 0 0 0 0 0 0 0 0 127 0" result="hardAlpha"/>
<feOffset dx="5" dy="6"/>
<feGaussianBlur stdDeviation="6"/>
<feComposite in2="hardAlpha" operator="out"/>
<feColorMatrix type="matrix" values="0 0 0 0 0 0 0 0 0 0 0 0 0 0 0 0 0 0 0.25 0"/>
<feBlend mode="normal" in2="BackgroundImageFix" result="effect1_dropShadow_153_5"/>
<feBlend mode="normal" in="SourceGraphic" in2="effect1_dropShadow_153_5" result="shape"/>
</filter>
</defs>
</svg>
