<svg width="162" height="217" viewBox="0 0 162 217" fill="none" xmlns="http://www.w3.org/2000/svg">
<g filter="url(#filter0_d_142_109)">
<path d="M60.846 157.11C70.5351 157.11 76.2644 167.996 70.7671 175.983C64.1211 185.64 71.4182 199.197 83.6116 198.355C94.62 197.592 100.604 185.034 94.3721 175.98C88.8774 167.997 94.6035 157.11 104.295 157.11H144.82V127.855C124.329 132.889 105.005 117.921 103.614 97.8607C102.036 75.104 123.057 57.8097 144.82 63.1383V14.2572C110.703 -11.4545 53.3594 28.2653 60.846 70.8896C11.3404 73.52 -5.24388 118.521 20.2288 157.11H60.846Z" fill="#C0A8EF"/>
<path d="M18.7922 93.2522C17.1078 94.9366 16.1616 97.221 16.1616 99.603C16.1616 100.794 15.6885 101.936 14.8463 102.778C14.0042 103.621 12.8619 104.094 11.671 104.094C10.48 104.094 9.33774 103.621 8.49558 102.778C7.65342 101.936 7.1803 100.794 7.1803 99.603C7.1803 94.839 9.07278 90.2701 12.4414 86.9015C15.8101 83.5329 20.3789 81.6404 25.1429 81.6404C29.9069 81.6404 34.4758 83.5329 37.8444 86.9015C41.213 90.2701 43.1055 94.839 43.1055 99.603C43.1055 100.794 42.6324 101.936 41.7902 102.778C40.9481 103.621 39.8059 104.094 38.6149 104.094C37.4239 104.094 36.2817 103.621 35.4395 102.778C34.5973 101.936 34.1242 100.794 34.1242 99.603C34.1242 97.221 33.178 94.9366 31.4937 93.2522C29.8093 91.5679 27.5249 90.6217 25.1429 90.6217C22.7609 90.6217 20.4765 91.5679 18.7922 93.2522Z" fill="#261743"/>
<path d="M59.7529 102.778C58.9107 103.621 57.7685 104.094 56.5775 104.094C55.3865 104.094 54.2443 103.621 53.4021 102.778C52.5599 101.936 52.0868 100.794 52.0868 99.603C52.0868 94.839 53.9793 90.2701 57.348 86.9015C60.7166 83.5329 65.2855 81.6404 70.0494 81.6404C74.8134 81.6404 79.3823 83.5329 82.7509 86.9015C86.1196 90.2701 88.012 94.839 88.012 99.603C88.012 100.794 87.5389 101.936 86.6968 102.778C85.8546 103.621 84.7124 104.094 83.5214 104.094C82.3304 104.094 81.1882 103.621 80.346 102.778C79.5039 101.936 79.0307 100.794 79.0307 99.603C79.0307 97.221 78.0845 94.9366 76.4002 93.2522C74.7159 91.5679 72.4314 90.6217 70.0494 90.6217C67.6674 90.6217 65.383 91.5679 63.6987 93.2522C62.0144 94.9366 61.0681 97.221 61.0681 99.603C61.0681 100.794 60.595 101.936 59.7529 102.778Z" fill="#261743"/>
<path d="M22.7429 122.57C23.2651 122.845 23.7281 123.219 24.1056 123.673C26.893 127.272 30.448 130.203 34.5117 132.254C38.5754 134.305 43.0455 135.423 47.5962 135.528C52.1469 135.423 56.6169 134.305 60.6806 132.254C64.7443 130.203 68.2994 127.272 71.0868 123.673C71.4642 123.219 71.9272 122.845 72.4495 122.57C72.9717 122.296 73.5429 122.127 74.1305 122.073C74.718 122.019 75.3104 122.081 75.8738 122.257C76.4372 122.432 76.9606 122.716 77.4141 123.094C77.8676 123.471 78.2423 123.934 78.5169 124.456C78.7914 124.979 78.9604 125.55 79.0142 126.137C79.068 126.725 79.0055 127.317 78.8304 127.881C78.6552 128.444 78.3708 128.967 77.9934 129.421C74.3693 134.04 69.7596 137.792 64.5008 140.402C59.2419 143.012 53.4665 144.416 47.5962 144.51C41.7258 144.416 35.9504 143.012 30.6916 140.402C25.4327 137.792 20.823 134.04 17.1989 129.421C16.8215 128.967 16.5371 128.444 16.362 127.881C16.1868 127.317 16.1244 126.725 16.1782 126.137C16.232 125.55 16.4009 124.979 16.6755 124.456C16.95 123.934 17.3247 123.471 17.7782 123.094C18.2317 122.716 18.7551 122.432 19.3185 122.257C19.8819 122.081 20.4743 122.019 21.0619 122.073C21.6494 122.127 22.2206 122.296 22.7429 122.57Z" fill="#261743"/>
</g>
<defs>
<filter id="filter0_d_142_109" x="0.180298" y="0.122314" width="161.64" height="216.271" filterUnits="userSpaceOnUse" color-interpolation-filters="sRGB">
<feFlood flood-opacity="0" result="BackgroundImageFix"/>
<feColorMatrix in="SourceAlpha" type="matrix" values="0 0 0 0 0 0 0 0 0 0 0 0 0 0 0 0 0 0 127 0" result="hardAlpha"/>
<feOffset dx="5" dy="6"/>
<feGaussianBlur stdDeviation="6"/>
<feComposite in2="hardAlpha" operator="out"/>
<feColorMatrix type="matrix" values="0 0 0 0 0 0 0 0 0 0 0 0 0 0 0 0 0 0 0.25 0"/>
<feBlend mode="normal" in2="BackgroundImageFix" result="effect1_dropShadow_142_109"/>
<feBlend mode="normal" in="SourceGraphic" in2="effect1_dropShadow_142_109" result="shape"/>
</filter>
</defs>
</svg>
