<svg width="352" height="230" viewBox="0 0 352 230" fill="none" xmlns="http://www.w3.org/2000/svg">
<path d="M46.9177 123.56C46.9151 122.454 47.8113 121.555 48.9177 121.555H61.2373C62.3419 121.555 63.2373 122.451 63.2373 123.555V186.869C63.2373 187.974 62.3419 188.869 61.2373 188.869H48.8661C48.2406 188.869 47.6511 188.577 47.2729 188.078L20.9301 153.369C19.7717 151.842 17.337 152.662 17.337 154.578V186.869C17.337 187.974 16.4416 188.869 15.337 188.869H2.91663C1.81206 188.869 0.916626 187.974 0.916626 186.869V123.555C0.916626 122.451 1.81206 121.555 2.91663 121.555H15.3815C16.0083 121.555 16.5989 121.849 16.9769 122.349L43.3993 157.303C44.5575 158.835 46.9993 158.013 46.9948 156.092L46.9177 123.56Z" fill="black"/>
<path d="M76.4056 123.555C76.4056 122.451 77.301 121.555 78.4056 121.555H127.508C128.612 121.555 129.508 122.451 129.508 123.555V133.575C129.508 134.68 128.612 135.575 127.508 135.575H95.9783C94.8737 135.575 93.9783 136.47 93.9783 137.575V146.154C93.9783 147.259 94.8737 148.154 95.9783 148.154H124.051C125.155 148.154 126.051 149.05 126.051 150.154V160.084C126.051 161.186 125.159 162.081 124.057 162.084L95.9723 162.168C94.8701 162.171 93.9783 163.066 93.9783 164.168V172.849C93.9783 173.954 94.8737 174.849 95.9783 174.849H128.468C129.573 174.849 130.468 175.745 130.468 176.849V186.869C130.468 187.974 129.573 188.869 128.468 188.869H78.4056C77.301 188.869 76.4056 187.974 76.4056 186.869V123.555Z" fill="black"/>
<path d="M157.625 161.118C157.625 165.343 158.873 168.736 161.37 171.297C163.866 173.857 167.035 175.138 170.876 175.138C174.653 175.138 177.694 173.889 179.999 171.393C182.367 168.832 183.551 165.407 183.551 161.118V123.555C183.551 122.451 184.447 121.555 185.551 121.555H199.124C200.229 121.555 201.124 122.451 201.124 123.555V161.118C201.124 166.943 199.876 172.065 197.379 176.482C194.947 180.835 191.426 184.196 186.816 186.565C182.271 188.933 176.926 190.118 170.78 190.118C164.634 190.118 159.225 188.933 154.552 186.565C149.942 184.196 146.358 180.835 143.797 176.482C141.3 172.065 140.052 166.943 140.052 161.118V123.555C140.052 122.451 140.947 121.555 142.052 121.555H155.625C156.729 121.555 157.625 122.451 157.625 123.555V161.118Z" fill="black"/>
<path d="M254.765 188.869C254.022 188.869 253.34 188.457 252.994 187.8L244.324 171.31C243.978 170.652 243.297 170.24 242.554 170.24H232.702C231.598 170.24 230.702 171.136 230.702 172.24V186.869C230.702 187.974 229.807 188.869 228.702 188.869H215.13C214.025 188.869 213.13 187.974 213.13 186.869V123.555C213.13 122.451 214.025 121.555 215.13 121.555H243.378C252.276 121.555 259.158 123.636 264.023 127.797C268.953 131.894 271.417 137.688 271.417 145.178C271.417 150.235 270.393 154.62 268.344 158.333C266.638 161.372 264.288 163.856 261.295 165.785C260.31 166.419 259.954 167.727 260.584 168.715L271.473 185.794C272.322 187.125 271.366 188.869 269.787 188.869H254.765ZM230.702 154.22C230.702 155.325 231.598 156.22 232.702 156.22H243.474C247.059 156.22 249.811 155.324 251.732 153.532C253.717 151.739 254.709 149.147 254.709 145.754C254.709 142.489 253.717 139.992 251.732 138.264C249.811 136.471 247.059 135.575 243.474 135.575H232.702C231.598 135.575 230.702 136.47 230.702 137.575V154.22Z" fill="black"/>
<path d="M314.69 120.499C321.539 120.499 327.717 122.003 333.223 125.012C338.792 128.021 343.145 132.15 346.282 137.399C349.483 142.649 351.083 148.538 351.083 155.068C351.083 161.662 349.483 167.616 346.282 172.929C343.145 178.242 338.792 182.436 333.223 185.508C327.717 188.581 321.539 190.118 314.69 190.118C307.84 190.118 301.63 188.613 296.061 185.604C290.555 182.532 286.202 178.338 283.001 173.025C279.864 167.648 278.296 161.662 278.296 155.068C278.296 148.538 279.864 142.649 283.001 137.399C286.202 132.15 290.555 128.021 296.061 125.012C301.63 122.003 307.84 120.499 314.69 120.499ZM314.882 135.383C311.553 135.383 308.448 136.247 305.567 137.976C302.75 139.704 300.51 142.105 298.845 145.178C297.181 148.186 296.349 151.515 296.349 155.164C296.349 158.877 297.181 162.27 298.845 165.343C300.574 168.352 302.846 170.752 305.663 172.545C308.48 174.273 311.553 175.138 314.882 175.138C318.211 175.138 321.251 174.273 324.004 172.545C326.821 170.752 329.029 168.352 330.63 165.343C332.23 162.27 333.03 158.877 333.03 155.164C333.03 151.515 332.23 148.186 330.63 145.178C329.029 142.105 326.821 139.704 324.004 137.976C321.251 136.247 318.211 135.383 314.882 135.383Z" fill="black"/>
<path d="M152.834 227.184C151.874 228.048 150.817 228.72 149.665 229.2C148.513 229.68 147.372 229.92 146.244 229.92C144.732 229.92 143.303 229.488 141.959 228.624C140.615 227.76 139.402 226.511 138.322 224.879H138.106C135.681 224.879 133.449 224.315 131.408 223.186C129.392 222.034 127.795 220.474 126.619 218.505C125.442 216.513 124.854 214.34 124.854 211.987C124.854 209.635 125.442 207.486 126.619 205.542C127.795 203.573 129.392 202.025 131.408 200.896C133.425 199.768 135.657 199.204 138.106 199.204C140.531 199.204 142.751 199.768 144.768 200.896C146.808 202.025 148.417 203.573 149.593 205.542C150.769 207.486 151.357 209.635 151.357 211.987C151.357 213.932 150.949 215.744 150.133 217.425C149.341 219.105 148.237 220.546 146.82 221.746C145.404 222.946 143.783 223.811 141.959 224.339C143.543 226.043 145.104 226.895 146.64 226.895C148.033 226.895 149.617 226.163 151.393 224.699L152.834 227.184ZM128.347 211.987C128.347 213.764 128.791 215.396 129.68 216.885C130.568 218.373 131.756 219.561 133.245 220.45C134.757 221.314 136.389 221.746 138.142 221.746C139.894 221.746 141.503 221.314 142.967 220.45C144.456 219.561 145.632 218.373 146.496 216.885C147.384 215.396 147.828 213.764 147.828 211.987C147.828 210.211 147.384 208.591 146.496 207.126C145.632 205.638 144.456 204.461 142.967 203.597C141.503 202.733 139.894 202.301 138.142 202.301C136.389 202.301 134.757 202.733 133.245 203.597C131.756 204.461 130.568 205.638 129.68 207.126C128.791 208.591 128.347 210.211 128.347 211.987Z" fill="black"/>
<path d="M163.934 214.328C163.934 216.657 164.571 218.481 165.843 219.802C167.139 221.098 168.916 221.746 171.172 221.746C173.405 221.746 175.157 221.098 176.43 219.802C177.702 218.481 178.338 216.657 178.338 214.328V199.42H181.795V214.328C181.795 217.617 180.847 220.198 178.95 222.07C177.078 223.943 174.485 224.879 171.172 224.879C167.835 224.879 165.219 223.943 163.322 222.07C161.426 220.198 160.477 217.617 160.477 214.328V199.42H163.934V214.328Z" fill="black"/>
<path d="M192.768 199.42H196.225V224.627H192.768V199.42Z" fill="black"/>
<path d="M206.088 199.42H226.361V201.977L210.229 221.494H226.541L226.505 224.627H205.62V222.07L221.752 202.553H206.052L206.088 199.42Z" fill="black"/>
<path d="M103.316 61.0783C103.812 68.2203 111.972 72.131 117.87 68.0735C123.058 64.5017 130.141 68.2219 130.141 74.5258V100.461H149.57C146.12 86.3708 157.292 72.6438 172.152 73.6699C185.228 74.5761 194.924 87.1661 191.659 100.461H218.17C234.592 75.6319 218.578 42.1581 186.577 40.5149C190.195 21.4062 173.184 0.607758 153.875 0.607758C146.9 0.607758 135.324 3.66199 130.141 7.56774V46.2761C130.141 52.5754 123.064 56.3018 117.869 52.7284C111.558 48.3864 102.769 53.1827 103.316 61.0783Z" fill="#7B3EF4"/>
</svg>
