<svg width="360" height="143" viewBox="0 0 360 143" fill="none" xmlns="http://www.w3.org/2000/svg">
<path d="M239.584 75.3987L219.155 75.4607C214.954 75.4607 212.474 70.7416 214.855 67.282C217.558 63.3567 214.958 57.9155 210.192 57.585C204.908 57.2182 201.743 63.094 204.625 67.2812C207.006 70.7427 204.525 75.4607 200.325 75.4607H182.762V88.1327C192.167 85.8299 201.306 93.2945 200.62 103.181C200.017 111.879 191.64 118.36 182.762 116.181V137.648C197.548 148.792 222.4 138.093 219.155 119.619C240.095 118.506 250.944 92.9271 239.584 75.3987Z" fill="#7B3EF4" fill-opacity="0.68"/>
<path d="M232.504 88.8928C233.234 88.1628 233.644 87.1727 233.644 86.1403C233.644 85.6242 233.849 85.1291 234.214 84.7642C234.579 84.3992 235.074 84.1941 235.591 84.1941C236.107 84.1941 236.602 84.3992 236.967 84.7642C237.332 85.1291 237.537 85.6242 237.537 86.1403C237.537 88.205 236.717 90.1853 235.257 91.6452C233.797 93.1052 231.816 93.9254 229.752 93.9254C227.687 93.9254 225.707 93.1052 224.247 91.6452C222.787 90.1853 221.967 88.205 221.967 86.1403C221.967 85.6242 222.172 85.1291 222.537 84.7642C222.902 84.3992 223.397 84.1941 223.913 84.1941C224.429 84.1941 224.924 84.3992 225.289 84.7642C225.654 85.1291 225.859 85.6242 225.859 86.1403C225.859 87.1727 226.269 88.1628 226.999 88.8928C227.729 89.6228 228.719 90.0329 229.752 90.0329C230.784 90.0329 231.774 89.6228 232.504 88.8928Z" fill="#261743"/>
<path d="M217.504 84.7642C217.869 85.1291 218.074 85.6242 218.074 86.1403C218.074 88.205 217.254 90.1853 215.794 91.6452C214.334 93.1052 212.354 93.9254 210.289 93.9254C208.225 93.9254 206.244 93.1052 204.784 91.6452C203.324 90.1853 202.504 88.205 202.504 86.1403C202.504 85.6242 202.709 85.1291 203.074 84.7642C203.439 84.3992 203.934 84.1941 204.451 84.1941C204.967 84.1941 205.462 84.3992 205.827 84.7642C206.192 85.1291 206.397 85.6242 206.397 86.1403C206.397 87.1727 206.807 88.1628 207.537 88.8928C208.267 89.6228 209.257 90.0329 210.289 90.0329C211.322 90.0329 212.312 89.6228 213.042 88.8928C213.772 88.1628 214.182 87.1727 214.182 86.1403C214.182 85.6242 214.387 85.1291 214.752 84.7642C215.117 84.3992 215.612 84.1941 216.128 84.1941C216.644 84.1941 217.139 84.3992 217.504 84.7642Z" fill="#261743"/>
<path d="M210.289 99.7634H229.752C230.268 99.7634 230.763 99.9684 231.128 100.333C231.493 100.698 231.698 101.193 231.698 101.71C231.698 102.226 231.493 102.721 231.128 103.086C230.763 103.451 230.268 103.656 229.752 103.656H210.289C209.773 103.656 209.278 103.451 208.913 103.086C208.548 102.721 208.343 102.226 208.343 101.71C208.343 101.193 208.548 100.698 208.913 100.333C209.278 99.9684 209.773 99.7634 210.289 99.7634Z" fill="#261743"/>
<path d="M192.399 102.611C192.764 97.3513 186.907 94.1517 182.7 97.0466C179.24 99.4258 174.521 96.9482 174.521 92.7462V75.4609H161.564C163.807 84.5887 156.855 93.3532 147.524 93.3532C138.105 93.3532 131.303 84.478 133.513 75.4609H117.679C106.645 92.1835 119.802 119.622 141.321 120.727C138.909 133.463 149.254 141.797 162.124 141.797C166.772 141.797 171.067 140.252 174.521 137.649V111.575C174.521 107.377 179.238 104.892 182.699 107.274C186.622 109.974 192.069 107.381 192.399 102.611Z" fill="#6F29FB"/>
<path fill-rule="evenodd" clip-rule="evenodd" d="M137.798 109.72C139.434 109.715 141.014 109.121 142.247 108.046C143.48 106.971 144.285 105.487 144.513 103.867C144.528 103.867 144.545 103.871 144.561 103.874C144.577 103.877 144.593 103.881 144.608 103.881C145.034 103.881 145.448 103.742 145.787 103.484C146.126 103.227 146.371 102.866 146.485 102.456C146.599 102.046 146.575 101.609 146.418 101.214C146.26 100.819 145.977 100.486 145.613 100.267L135.881 94.4278C135.439 94.1621 134.909 94.0829 134.408 94.2078C133.908 94.3326 133.477 94.6512 133.211 95.0935C132.979 95.4872 132.895 95.951 132.974 96.4013C133.053 96.8516 133.29 97.2588 133.643 97.5496C132.516 98.4136 131.688 99.6096 131.276 100.969C130.865 102.329 130.89 103.783 131.349 105.127C131.808 106.471 132.677 107.638 133.834 108.462C134.991 109.286 136.378 109.726 137.798 109.72ZM135.703 105.048C136.27 105.575 137.024 105.855 137.798 105.827C138.285 105.827 138.764 105.706 139.192 105.474C139.619 105.242 139.982 104.906 140.248 104.498C140.513 104.09 140.672 103.622 140.71 103.137C140.748 102.652 140.665 102.165 140.467 101.72L137.584 99.9883C136.81 100.017 136.079 100.351 135.551 100.919C135.024 101.487 134.744 102.24 134.772 103.015C134.8 103.789 135.135 104.52 135.703 105.048Z" fill="#261743"/>
<path d="M140.933 117.515C141.446 117.572 141.915 117.83 142.238 118.234C142.516 118.6 142.874 118.897 143.286 119.101C143.697 119.305 144.151 119.412 144.61 119.412C145.07 119.412 145.523 119.305 145.935 119.101C146.346 118.897 146.705 118.6 146.983 118.234C147.619 117.402 148.438 116.728 149.376 116.264C150.315 115.8 151.347 115.559 152.394 115.559C153.441 115.559 154.474 115.8 155.413 116.264C156.351 116.728 157.17 117.402 157.806 118.234C158.11 118.638 158.244 119.144 158.181 119.646C158.117 120.148 157.861 120.605 157.467 120.921C157.072 121.238 156.57 121.388 156.067 121.34C155.563 121.293 155.098 121.051 154.77 120.666C154.492 120.3 154.133 120.003 153.721 119.799C153.309 119.594 152.855 119.488 152.395 119.488C151.935 119.488 151.482 119.594 151.07 119.799C150.658 120.003 150.299 120.3 150.021 120.666C149.385 121.498 148.566 122.172 147.628 122.636C146.689 123.1 145.656 123.341 144.609 123.341C143.562 123.341 142.53 123.1 141.591 122.636C140.653 122.172 139.834 121.498 139.198 120.666C138.875 120.263 138.726 119.748 138.783 119.235C138.84 118.722 139.098 118.253 139.501 117.93C139.905 117.607 140.419 117.458 140.933 117.515Z" fill="#261743"/>
<path fill-rule="evenodd" clip-rule="evenodd" d="M152.448 103.873C152.462 103.87 152.477 103.867 152.491 103.866C152.643 104.971 153.066 106.021 153.72 106.925C154.375 107.828 155.242 108.555 156.244 109.044C157.247 109.533 158.354 109.767 159.469 109.727C160.584 109.686 161.671 109.371 162.635 108.811C163.6 108.251 164.411 107.461 164.998 106.513C165.585 105.565 165.93 104.486 166.001 103.373C166.073 102.26 165.87 101.147 165.409 100.131C164.949 99.1151 164.245 98.2283 163.36 97.5488C163.713 97.258 163.951 96.8508 164.03 96.4005C164.109 95.9502 164.025 95.4864 163.793 95.0927C163.527 94.6504 163.096 94.3318 162.595 94.207C162.094 94.0821 161.565 94.1613 161.122 94.4271L151.391 100.266C151.026 100.485 150.744 100.818 150.586 101.213C150.428 101.609 150.405 102.045 150.519 102.455C150.633 102.865 150.878 103.226 151.217 103.484C151.556 103.741 151.97 103.88 152.395 103.88C152.412 103.88 152.43 103.876 152.448 103.873ZM157.815 105.473C158.243 105.705 158.721 105.826 159.207 105.826C159.978 105.848 160.725 105.564 161.288 105.036C161.85 104.509 162.18 103.78 162.208 103.01C162.235 102.24 161.957 101.49 161.434 100.924C160.911 100.358 160.186 100.021 159.415 99.9875L156.539 101.724C156.342 102.168 156.259 102.655 156.298 103.139C156.336 103.624 156.495 104.091 156.76 104.499C157.025 104.906 157.388 105.241 157.815 105.473Z" fill="#261743"/>
<path d="M164.883 40.9717C165.213 45.7317 170.652 48.3381 174.583 45.6339C178.041 43.2533 182.761 45.7328 182.761 49.9343V67.2198H195.711C193.411 57.8288 200.857 48.6799 210.761 49.3638C219.476 49.9678 225.938 58.3589 223.762 67.2198H241.431C252.376 50.6715 241.703 28.3616 220.375 27.2664C222.787 14.5307 211.449 0.668762 198.58 0.668762C193.931 0.668762 186.215 2.70437 182.761 5.30751V31.1062C182.761 35.3046 178.044 37.7882 174.582 35.4065C170.376 32.5127 164.518 35.7093 164.883 40.9717Z" fill="#7B3EF4"/>
<path d="M197.585 27.0883C199.323 27.0911 200.997 26.4275 202.261 25.2339C203.525 24.0404 204.283 22.4078 204.38 20.6721C204.477 18.9363 203.904 17.2296 202.781 15.903C201.657 14.5763 200.068 13.7308 198.34 13.5405C198.482 12.8768 198.556 12.1976 198.558 11.5183C198.558 11.0021 198.353 10.5071 197.988 10.1421C197.623 9.77712 197.128 9.57208 196.612 9.57208C196.096 9.57208 195.601 9.77712 195.236 10.1421C194.871 10.5071 194.666 11.0021 194.666 11.5183C194.666 13.0668 194.05 14.552 192.955 15.6469C191.861 16.7419 190.375 17.3571 188.827 17.3571C188.311 17.3571 187.816 17.5621 187.451 17.9271C187.086 18.2921 186.881 18.7871 186.881 19.3033C186.881 19.8195 187.086 20.3145 187.451 20.6795C187.816 21.0445 188.311 21.2495 188.827 21.2495C189.508 21.2476 190.185 21.1736 190.849 21.0316C191.031 22.6925 191.819 24.2281 193.061 25.3453C194.304 26.4624 195.914 27.0829 197.585 27.0883ZM196.417 17.6081C196.785 17.4427 197.182 17.3571 197.585 17.3571C198.162 17.3571 198.727 17.5283 199.207 17.8491C199.687 18.1698 200.061 18.6258 200.282 19.1592C200.503 19.6927 200.561 20.2797 200.448 20.846C200.336 21.4123 200.058 21.9324 199.649 22.3407C199.241 22.749 198.721 23.027 198.155 23.1397C197.588 23.2523 197.001 23.1945 196.468 22.9736C195.934 22.7526 195.478 22.3784 195.158 21.8983C194.837 21.4182 194.666 20.8538 194.666 20.2764C194.666 19.8735 194.753 19.4765 194.917 19.1087C195.033 19.0172 195.111 18.8926 195.23 18.7953C195.534 18.5267 195.822 18.2387 196.09 17.9351C196.19 17.8144 196.316 17.7268 196.417 17.6081ZM206.343 29.0345C203.799 29.0752 201.296 29.6833 199.017 30.8147C196.737 31.946 194.74 33.572 193.169 35.5739C193.005 35.7705 192.882 35.9973 192.806 36.2415C192.73 36.4857 192.703 36.7424 192.727 36.997C192.75 37.2517 192.823 37.4992 192.942 37.7256C193.061 37.9519 193.223 38.1526 193.42 38.3162C193.817 38.6465 194.329 38.8057 194.843 38.7586C195.098 38.7353 195.345 38.662 195.572 38.543C195.798 38.4241 195.999 38.2617 196.162 38.0651C197.338 36.4708 198.872 35.175 200.64 34.282C202.409 33.389 204.362 32.9237 206.343 32.9237C208.324 32.9237 210.277 33.389 212.046 34.282C213.814 35.175 215.348 36.4708 216.524 38.0651C216.687 38.2617 216.888 38.4241 217.114 38.543C217.341 38.662 217.588 38.7353 217.843 38.7586C218.098 38.7819 218.354 38.7548 218.599 38.6789C218.843 38.603 219.07 38.4798 219.266 38.3162C219.463 38.1526 219.625 37.9519 219.744 37.7256C219.863 37.4992 219.936 37.2517 219.96 36.997C219.983 36.7424 219.956 36.4857 219.88 36.2415C219.804 35.9973 219.681 35.7705 219.517 35.5739C217.947 33.572 215.949 31.946 213.67 30.8147C211.39 29.6833 208.887 29.0752 206.343 29.0345Z" fill="#261743"/>
<path d="M209.272 37.644C208.39 37.1064 207.377 36.8221 206.343 36.8221C205.31 36.8221 204.297 37.1064 203.414 37.644C202.977 37.9085 202.661 38.3347 202.535 38.8302C202.409 39.3258 202.483 39.8511 202.741 40.2924C203 40.7337 203.421 41.0557 203.915 41.1887C204.409 41.3217 204.935 41.2551 205.38 41.0032C205.964 40.61 206.723 40.61 207.307 41.0032C207.527 41.1366 207.772 41.2249 208.028 41.2628C208.283 41.3007 208.543 41.2875 208.793 41.224C209.043 41.1605 209.278 41.0479 209.484 40.8928C209.69 40.7378 209.863 40.5432 209.993 40.3206C210.124 40.098 210.208 39.8517 210.243 39.5961C210.277 39.3404 210.26 39.0805 210.193 38.8314C210.126 38.5824 210.01 38.3491 209.852 38.1453C209.694 37.9414 209.497 37.771 209.272 37.644ZM218.021 11.5175C218.021 11.0014 217.816 10.5063 217.451 10.1413C217.086 9.77634 216.591 9.57129 216.074 9.57129C215.558 9.57129 215.063 9.77634 214.698 10.1413C214.333 10.5063 214.128 11.0014 214.128 11.5175C214.13 12.1987 214.204 12.876 214.346 13.5397C213.073 13.6786 211.865 14.1747 210.861 14.9707C209.857 15.7667 209.099 16.8302 208.674 18.0386C208.249 19.2469 208.174 20.5509 208.458 21.8C208.742 23.0491 209.373 24.1925 210.279 25.0983C211.184 26.0041 212.328 26.6354 213.577 26.9193C214.826 27.2032 216.13 27.1283 217.338 26.7031C218.547 26.2778 219.61 25.5197 220.406 24.5161C221.202 23.5124 221.698 22.3042 221.837 21.0308C222.501 21.1729 223.18 21.2468 223.859 21.2488C224.376 21.2488 224.871 21.0437 225.236 20.6787C225.601 20.3137 225.806 19.8187 225.806 19.3025C225.806 18.7863 225.601 18.2913 225.236 17.9263C224.871 17.5613 224.376 17.3563 223.859 17.3563C222.311 17.3563 220.826 16.7411 219.731 15.6461C218.636 14.5512 218.021 13.0661 218.021 11.5175ZM217.77 19.1079C217.933 19.4757 218.019 19.8728 218.021 20.2756C218.021 20.853 217.849 21.4175 217.529 21.8976C217.208 22.3776 216.752 22.7518 216.219 22.9728C215.685 23.1938 215.098 23.2516 214.532 23.1389C213.965 23.0263 213.445 22.7482 213.037 22.34C212.629 21.9317 212.351 21.4115 212.238 20.8452C212.125 20.2789 212.183 19.6919 212.404 19.1585C212.625 18.625 212.999 18.1691 213.479 17.8483C213.96 17.5275 214.524 17.3563 215.101 17.3563C215.504 17.3563 215.901 17.4419 216.269 17.6073C216.363 17.7261 216.489 17.8136 216.588 17.9265C216.857 18.2301 217.145 18.5182 217.449 18.7868C217.567 18.8841 217.653 19.0086 217.77 19.1079Z" fill="#261743"/>
<path d="M209.272 37.644C208.39 37.1064 207.377 36.8221 206.343 36.8221C205.31 36.8221 204.297 37.1064 203.414 37.644C202.977 37.9085 202.661 38.3347 202.535 38.8302C202.409 39.3258 202.483 39.8511 202.741 40.2924C203 40.7337 203.421 41.0557 203.915 41.1887C204.409 41.3217 204.935 41.2551 205.38 41.0032C205.964 40.61 206.723 40.61 207.307 41.0032C207.527 41.1366 207.772 41.2249 208.028 41.2628C208.283 41.3007 208.543 41.2875 208.793 41.224C209.043 41.1605 209.278 41.0479 209.484 40.8928C209.69 40.7378 209.863 40.5432 209.993 40.3206C210.124 40.098 210.208 39.8517 210.243 39.5961C210.277 39.3404 210.26 39.0805 210.193 38.8314C210.126 38.5824 210.01 38.3491 209.852 38.1453C209.694 37.9414 209.497 37.771 209.272 37.644ZM218.021 11.5175C218.021 11.0014 217.816 10.5063 217.451 10.1413C217.086 9.77634 216.591 9.57129 216.074 9.57129C215.558 9.57129 215.063 9.77634 214.698 10.1413C214.333 10.5063 214.128 11.0014 214.128 11.5175C214.13 12.1987 214.204 12.876 214.346 13.5397C213.073 13.6786 211.865 14.1747 210.861 14.9707C209.857 15.7667 209.099 16.8302 208.674 18.0386C208.249 19.2469 208.174 20.5509 208.458 21.8C208.742 23.0491 209.373 24.1925 210.279 25.0983C211.184 26.0041 212.328 26.6354 213.577 26.9193C214.826 27.2032 216.13 27.1283 217.338 26.7031C218.547 26.2778 219.61 25.5197 220.406 24.5161C221.202 23.5124 221.698 22.3042 221.837 21.0308C222.501 21.1729 223.18 21.2468 223.859 21.2488C224.376 21.2488 224.871 21.0437 225.236 20.6787C225.601 20.3137 225.806 19.8187 225.806 19.3025C225.806 18.7863 225.601 18.2913 225.236 17.9263C224.871 17.5613 224.376 17.3563 223.859 17.3563C222.311 17.3563 220.826 16.7411 219.731 15.6461C218.636 14.5512 218.021 13.0661 218.021 11.5175ZM217.77 19.1079C217.933 19.4757 218.019 19.8728 218.021 20.2756C218.021 20.853 217.849 21.4175 217.529 21.8976C217.208 22.3776 216.752 22.7518 216.219 22.9728C215.685 23.1938 215.098 23.2516 214.532 23.1389C213.965 23.0263 213.445 22.7482 213.037 22.34C212.629 21.9317 212.351 21.4115 212.238 20.8452C212.125 20.2789 212.183 19.6919 212.404 19.1585C212.625 18.625 212.999 18.1691 213.479 17.8483C213.96 17.5275 214.524 17.3563 215.101 17.3563C215.504 17.3563 215.901 17.4419 216.269 17.6073C216.363 17.7261 216.489 17.8136 216.588 17.9265C216.857 18.2301 217.145 18.5182 217.449 18.7868C217.567 18.8841 217.653 19.0086 217.77 19.1079Z" fill="#261743"/>
<path d="M138.127 67.2203C142.326 67.2203 144.809 71.9383 142.427 75.3998C139.546 79.585 142.709 85.4609 147.994 85.096C152.765 84.7652 155.358 79.3224 152.657 75.3987C150.276 71.9388 152.757 67.2203 156.958 67.2203H174.521V54.5412C165.64 56.7228 157.266 50.2358 156.662 41.5417C155.979 31.6789 165.089 24.1836 174.521 26.493V5.30795C159.735 -5.83548 134.882 11.379 138.127 29.8524C116.671 30.9924 109.484 50.4958 120.524 67.2203H138.127Z" fill="#7B3EF4" fill-opacity="0.39"/>
<path d="M119.901 39.5444C119.171 40.2743 118.761 41.2644 118.761 42.2968C118.761 42.8129 118.556 43.308 118.191 43.673C117.826 44.038 117.331 44.243 116.815 44.243C116.298 44.243 115.803 44.038 115.438 43.673C115.073 43.308 114.868 42.8129 114.868 42.2968C114.868 40.2321 115.689 38.2519 117.149 36.7919C118.608 35.332 120.589 34.5118 122.653 34.5118C124.718 34.5118 126.698 35.332 128.158 36.7919C129.618 38.2519 130.438 40.2321 130.438 42.2968C130.438 42.8129 130.233 43.308 129.868 43.673C129.503 44.038 129.008 44.243 128.492 44.243C127.976 44.243 127.481 44.038 127.116 43.673C126.751 43.308 126.546 42.8129 126.546 42.2968C126.546 41.2644 126.136 40.2743 125.406 39.5444C124.676 38.8144 123.686 38.4043 122.653 38.4043C121.621 38.4043 120.631 38.8144 119.901 39.5444Z" fill="#261743"/>
<path d="M137.653 43.673C137.288 44.038 136.793 44.243 136.277 44.243C135.761 44.243 135.266 44.038 134.901 43.673C134.536 43.308 134.331 42.8129 134.331 42.2968C134.331 40.2321 135.151 38.2519 136.611 36.7919C138.071 35.332 140.051 34.5118 142.116 34.5118C144.181 34.5118 146.161 35.332 147.621 36.7919C149.081 38.2519 149.901 40.2321 149.901 42.2968C149.901 42.8129 149.696 43.308 149.331 43.673C148.966 44.038 148.471 44.243 147.955 44.243C147.438 44.243 146.943 44.038 146.578 43.673C146.213 43.308 146.008 42.8129 146.008 42.2968C146.008 41.2644 145.598 40.2743 144.868 39.5444C144.138 38.8144 143.148 38.4043 142.116 38.4043C141.083 38.4043 140.093 38.8144 139.363 39.5444C138.633 40.2743 138.223 41.2644 138.223 42.2968C138.223 42.8129 138.018 43.308 137.653 43.673Z" fill="#261743"/>
<path d="M121.613 52.2507C121.84 52.3697 122.04 52.5321 122.204 52.7286C123.412 54.2883 124.953 55.5588 126.714 56.4477C128.475 57.3366 130.412 57.8213 132.385 57.8667C134.357 57.8213 136.294 57.3366 138.055 56.4477C139.817 55.5588 141.357 54.2883 142.565 52.7286C142.729 52.5321 142.93 52.3697 143.156 52.2507C143.382 52.1317 143.63 52.0585 143.885 52.0352C144.139 52.0119 144.396 52.0389 144.64 52.1148C144.884 52.1907 145.111 52.314 145.308 52.4776C145.504 52.6412 145.667 52.8418 145.786 53.0682C145.905 53.2945 145.978 53.5421 146.001 53.7967C146.024 54.0514 145.997 54.3081 145.921 54.5523C145.846 54.7965 145.722 55.0233 145.559 55.2198C143.988 57.2218 141.99 58.8477 139.711 59.9791C137.432 61.1104 134.929 61.7186 132.385 61.7592C129.84 61.7186 127.337 61.1104 125.058 59.9791C122.779 58.8477 120.781 57.2218 119.21 55.2198C119.047 55.0233 118.924 54.7965 118.848 54.5523C118.772 54.3081 118.745 54.0514 118.768 53.7967C118.791 53.5421 118.865 53.2945 118.984 53.0682C119.103 52.8418 119.265 52.6412 119.462 52.4776C119.658 52.314 119.885 52.1907 120.129 52.1148C120.373 52.0389 120.63 52.0119 120.885 52.0352C121.139 52.0585 121.387 52.1317 121.613 52.2507Z" fill="#261743"/>
<path d="M12.5983 126.837C12.1049 126.264 11.5183 125.817 10.8383 125.497C10.1716 125.177 9.49161 125.017 8.79828 125.017C7.93162 125.017 7.13828 125.224 6.41828 125.637C5.69828 126.05 5.13161 126.624 4.71828 127.357C4.30495 128.077 4.09828 128.87 4.09828 129.737C4.09828 130.604 4.30495 131.404 4.71828 132.137C5.13161 132.857 5.69828 133.43 6.41828 133.857C7.13828 134.27 7.93162 134.477 8.79828 134.477C9.46495 134.477 10.1316 134.33 10.7983 134.037C11.4783 133.744 12.0783 133.337 12.5983 132.817L14.1783 134.577C13.4449 135.324 12.5916 135.917 11.6183 136.357C10.6449 136.784 9.65828 136.997 8.65828 136.997C7.31161 136.997 6.07828 136.677 4.95828 136.037C3.83828 135.397 2.95828 134.53 2.31828 133.437C1.67828 132.33 1.35828 131.11 1.35828 129.777C1.35828 128.444 1.68495 127.23 2.33828 126.137C2.99161 125.044 3.87828 124.184 4.99828 123.557C6.13161 122.93 7.38495 122.617 8.75828 122.617C9.75828 122.617 10.7383 122.817 11.6983 123.217C12.6583 123.617 13.4783 124.17 14.1583 124.877L12.5983 126.837ZM20.6906 126.017C21.7973 126.017 22.7706 126.244 23.6106 126.697C24.464 127.15 25.124 127.79 25.5906 128.617C26.0706 129.43 26.3106 130.37 26.3106 131.437C26.3106 132.517 26.0706 133.47 25.5906 134.297C25.124 135.124 24.464 135.764 23.6106 136.217C22.7706 136.67 21.7973 136.897 20.6906 136.897C19.5706 136.897 18.584 136.67 17.7306 136.217C16.8773 135.764 16.2106 135.124 15.7306 134.297C15.264 133.47 15.0306 132.517 15.0306 131.437C15.0306 130.37 15.264 129.43 15.7306 128.617C16.2106 127.79 16.8773 127.15 17.7306 126.697C18.584 126.244 19.5706 126.017 20.6906 126.017ZM20.6906 128.237C19.784 128.237 19.0506 128.537 18.4906 129.137C17.9306 129.737 17.6506 130.517 17.6506 131.477C17.6506 132.437 17.9306 133.217 18.4906 133.817C19.0506 134.417 19.784 134.717 20.6906 134.717C21.5706 134.717 22.2906 134.417 22.8506 133.817C23.4106 133.217 23.6906 132.437 23.6906 131.477C23.6906 130.517 23.4106 129.737 22.8506 129.137C22.2906 128.537 21.5706 128.237 20.6906 128.237ZM28.6692 121.957H31.2692V136.797H28.6692V121.957ZM39.0644 126.017C40.771 126.017 42.051 126.504 42.9044 127.477C43.771 128.45 44.2044 129.817 44.2044 131.577C44.2044 131.924 44.1977 132.184 44.1844 132.357H36.2844C36.4577 133.117 36.811 133.717 37.3444 134.157C37.891 134.584 38.5577 134.797 39.3444 134.797C39.891 134.797 40.411 134.697 40.9044 134.497C41.411 134.284 41.851 133.984 42.2244 133.597L43.6244 135.057C43.091 135.644 42.4377 136.097 41.6644 136.417C40.9044 136.737 40.0577 136.897 39.1244 136.897C38.031 136.897 37.0644 136.67 36.2244 136.217C35.3977 135.764 34.7577 135.13 34.3044 134.317C33.851 133.49 33.6244 132.544 33.6244 131.477C33.6244 130.41 33.851 129.464 34.3044 128.637C34.771 127.81 35.4177 127.17 36.2444 126.717C37.071 126.25 38.011 126.017 39.0644 126.017ZM41.8244 130.617C41.7977 129.83 41.5377 129.204 41.0444 128.737C40.551 128.27 39.8977 128.037 39.0844 128.037C38.3244 128.037 37.6844 128.27 37.1644 128.737C36.6577 129.19 36.3444 129.817 36.2244 130.617H41.8244ZM39.7244 121.617L42.2244 122.637L39.6644 124.697L37.6444 124.497L39.7244 121.617ZM49.0403 128.157C49.4003 127.464 49.887 126.937 50.5003 126.577C51.127 126.204 51.8536 126.01 52.6803 125.997V128.517C51.5736 128.45 50.687 128.71 50.0203 129.297C49.367 129.87 49.0403 130.65 49.0403 131.637V136.797H46.4403V126.097H49.0403V128.157ZM54.5067 126.097H57.1067V136.797H54.5067V126.097ZM55.7867 121.497C56.2134 121.497 56.5667 121.644 56.8467 121.937C57.1267 122.23 57.2667 122.604 57.2667 123.057C57.2667 123.497 57.1267 123.864 56.8467 124.157C56.5667 124.45 56.2134 124.597 55.7867 124.597C55.3601 124.597 55.0067 124.45 54.7267 124.157C54.4467 123.864 54.3067 123.497 54.3067 123.057C54.3067 122.604 54.4467 122.23 54.7267 121.937C55.0067 121.644 55.3601 121.497 55.7867 121.497ZM67.687 129.477C66.967 128.69 66.0337 128.297 64.887 128.297C64.0204 128.297 63.3137 128.59 62.767 129.177C62.2337 129.764 61.967 130.524 61.967 131.457C61.967 132.417 62.2337 133.19 62.767 133.777C63.3137 134.364 64.0204 134.657 64.887 134.657C66.167 134.657 67.127 134.237 67.767 133.397L69.387 134.737C68.907 135.43 68.2737 135.964 67.487 136.337C66.7004 136.71 65.787 136.897 64.747 136.897C63.6937 136.897 62.7537 136.67 61.927 136.217C61.1137 135.764 60.4804 135.13 60.027 134.317C59.5737 133.49 59.347 132.544 59.347 131.477C59.347 130.397 59.5737 129.444 60.027 128.617C60.4937 127.79 61.1337 127.15 61.947 126.697C62.7737 126.244 63.7204 126.017 64.787 126.017C65.7604 126.017 66.627 126.19 67.387 126.537C68.1604 126.87 68.787 127.35 69.267 127.977L67.687 129.477ZM75.925 126.017C77.0317 126.017 78.005 126.244 78.845 126.697C79.6983 127.15 80.3583 127.79 80.825 128.617C81.305 129.43 81.545 130.37 81.545 131.437C81.545 132.517 81.305 133.47 80.825 134.297C80.3583 135.124 79.6983 135.764 78.845 136.217C78.005 136.67 77.0317 136.897 75.925 136.897C74.805 136.897 73.8183 136.67 72.965 136.217C72.1117 135.764 71.445 135.124 70.965 134.297C70.4983 133.47 70.265 132.517 70.265 131.437C70.265 130.37 70.4983 129.43 70.965 128.617C71.445 127.79 72.1117 127.15 72.965 126.697C73.8183 126.244 74.805 126.017 75.925 126.017ZM75.925 128.237C75.0183 128.237 74.285 128.537 73.725 129.137C73.165 129.737 72.885 130.517 72.885 131.477C72.885 132.437 73.165 133.217 73.725 133.817C74.285 134.417 75.0183 134.717 75.925 134.717C76.805 134.717 77.525 134.417 78.085 133.817C78.645 133.217 78.925 132.437 78.925 131.477C78.925 130.517 78.645 129.737 78.085 129.137C77.525 128.537 76.805 128.237 75.925 128.237Z" fill="black"/>
<path d="M11.2583 9.26876C10.5383 8.82876 9.79828 8.48876 9.03828 8.24876C8.29162 8.00876 7.63162 7.88876 7.05828 7.88876C6.41828 7.88876 5.91161 8.00876 5.53828 8.24876C5.16495 8.48876 4.97828 8.82209 4.97828 9.24876C4.97828 9.63543 5.10495 9.9621 5.35828 10.2288C5.62495 10.4821 5.95161 10.6954 6.33828 10.8688C6.73828 11.0288 7.27828 11.2088 7.95828 11.4088C8.90495 11.6888 9.67828 11.9688 10.2783 12.2488C10.8916 12.5288 11.4116 12.9421 11.8383 13.4888C12.2649 14.0354 12.4783 14.7554 12.4783 15.6488C12.4783 16.5021 12.2449 17.2488 11.7783 17.8888C11.3249 18.5154 10.6916 18.9954 9.87828 19.3288C9.07828 19.6621 8.15828 19.8288 7.11828 19.8288C6.02495 19.8288 4.95828 19.6288 3.91828 19.2288C2.87828 18.8154 1.97161 18.2688 1.19828 17.5888L2.31828 15.3088C3.02495 15.9621 3.81828 16.4754 4.69828 16.8488C5.57828 17.2221 6.39828 17.4088 7.15828 17.4088C7.90495 17.4088 8.49161 17.2688 8.91828 16.9888C9.34495 16.6954 9.55828 16.3021 9.55828 15.8088C9.55828 15.4088 9.42495 15.0821 9.15828 14.8288C8.90495 14.5621 8.57828 14.3488 8.17828 14.1888C7.77828 14.0288 7.23161 13.8488 6.53828 13.6488C5.59161 13.3688 4.81828 13.0954 4.21828 12.8288C3.61828 12.5621 3.10495 12.1621 2.67828 11.6288C2.25161 11.0821 2.03828 10.3688 2.03828 9.48876C2.03828 8.67543 2.25161 7.96876 2.67828 7.36876C3.11828 6.75543 3.73161 6.2821 4.51828 5.94876C5.31828 5.61543 6.23828 5.44876 7.27828 5.44876C8.18495 5.44876 9.07828 5.58209 9.95828 5.84876C10.8516 6.11543 11.6449 6.47543 12.3383 6.92876L11.2583 9.26876ZM21.2369 19.6688V18.3688C20.8635 18.8354 20.3835 19.1888 19.7969 19.4288C19.2102 19.6688 18.5369 19.7888 17.7769 19.7888C17.0302 19.7888 16.3702 19.6488 15.7969 19.3688C15.2369 19.0754 14.8035 18.6754 14.4969 18.1688C14.1902 17.6621 14.0369 17.0954 14.0369 16.4688C14.0369 15.4688 14.3902 14.6888 15.0969 14.1288C15.8035 13.5554 16.8035 13.2621 18.0969 13.2488H21.2169V12.9688C21.2169 12.3421 21.0102 11.8554 20.5969 11.5088C20.1835 11.1621 19.5835 10.9888 18.7969 10.9888C17.7835 10.9888 16.7235 11.3221 15.6169 11.9888L14.6769 10.1888C15.5169 9.7221 16.2769 9.38876 16.9569 9.18876C17.6502 8.97543 18.4569 8.86876 19.3769 8.86876C20.7635 8.86876 21.8369 9.2021 22.5969 9.86876C23.3702 10.5354 23.7635 11.4688 23.7769 12.6688L23.7969 19.6688H21.2369ZM18.3969 17.7888C19.1435 17.7888 19.7835 17.6154 20.3169 17.2688C20.8502 16.9088 21.1502 16.4688 21.2169 15.9488V14.9888H18.5169C17.8235 14.9888 17.3102 15.0954 16.9769 15.3088C16.6569 15.5088 16.4969 15.8421 16.4969 16.3088C16.4969 16.7621 16.6635 17.1221 16.9969 17.3888C17.3435 17.6554 17.8102 17.7888 18.3969 17.7888ZM33.1538 8.86876C34.3804 8.86876 35.3471 9.2421 36.0538 9.98876C36.7604 10.7221 37.1138 11.7221 37.1138 12.9888V19.6688H34.4938V13.7488C34.4938 13.0021 34.2804 12.4154 33.8538 11.9888C33.4271 11.5488 32.8471 11.3288 32.1138 11.3288C31.2471 11.3421 30.5604 11.6354 30.0538 12.2088C29.5604 12.7821 29.3138 13.5154 29.3138 14.4088V19.6688H26.7138V8.96876H29.3138V10.9688C30.0471 9.59543 31.3271 8.89543 33.1538 8.86876ZM49.8141 8.96876V18.6488C49.8141 19.6621 49.5807 20.5421 49.1141 21.2888C48.6607 22.0488 48.0074 22.6288 47.1541 23.0288C46.3141 23.4421 45.3341 23.6488 44.2141 23.6488C42.5874 23.6488 41.0807 23.1754 39.6941 22.2288L40.7341 20.3488C41.7474 21.0954 42.8607 21.4688 44.0741 21.4688C45.0341 21.4688 45.7941 21.2221 46.3541 20.7288C46.9274 20.2354 47.2141 19.5621 47.2141 18.7088V17.4488C46.8541 17.9954 46.3874 18.4154 45.8141 18.7088C45.2407 18.9888 44.5741 19.1288 43.8141 19.1288C42.8807 19.1288 42.0541 18.9154 41.3341 18.4888C40.6141 18.0488 40.0541 17.4421 39.6541 16.6688C39.2541 15.8821 39.0541 14.9821 39.0541 13.9688C39.0541 12.9688 39.2541 12.0888 39.6541 11.3288C40.0541 10.5554 40.6141 9.95543 41.3341 9.52876C42.0541 9.10209 42.8807 8.88876 43.8141 8.88876C44.5607 8.88876 45.2207 9.03543 45.7941 9.32876C46.3807 9.62209 46.8541 10.0354 47.2141 10.5688V8.96876H49.8141ZM44.3741 17.0888C45.2141 17.0888 45.8941 16.8088 46.4141 16.2488C46.9474 15.6754 47.2141 14.9354 47.2141 14.0288C47.2141 13.1221 46.9474 12.3888 46.4141 11.8288C45.8941 11.2554 45.2141 10.9688 44.3741 10.9688C43.5341 10.9688 42.8474 11.2554 42.3141 11.8288C41.7941 12.4021 41.5274 13.1354 41.5141 14.0288C41.5274 14.9354 41.7941 15.6754 42.3141 16.2488C42.8474 16.8088 43.5341 17.0888 44.3741 17.0888ZM62.7461 8.96876V19.6688H60.1261V17.6888C59.4061 19.0754 58.1661 19.7688 56.4061 19.7688C55.2061 19.7688 54.2594 19.4021 53.5661 18.6688C52.8728 17.9354 52.5261 16.9354 52.5261 15.6688V8.96876H55.1461V14.9088C55.1461 15.6554 55.3461 16.2421 55.7461 16.6688C56.1594 17.0954 56.7261 17.3088 57.4461 17.3088C58.2728 17.2954 58.9261 17.0021 59.4061 16.4288C59.8861 15.8554 60.1261 15.1288 60.1261 14.2488V8.96876H62.7461ZM65.9911 8.96876H68.5911V19.6688H65.9911V8.96876ZM68.0511 4.46876L70.5511 5.48876L67.9911 7.54876L65.9711 7.34876L68.0511 4.46876ZM78.2514 8.86876C79.4781 8.86876 80.4447 9.2421 81.1514 9.98876C81.8581 10.7221 82.2114 11.7221 82.2114 12.9888V19.6688H79.5914V13.7488C79.5914 13.0021 79.3781 12.4154 78.9514 11.9888C78.5247 11.5488 77.9447 11.3288 77.2114 11.3288C76.3447 11.3421 75.6581 11.6354 75.1514 12.2088C74.6581 12.7821 74.4114 13.5154 74.4114 14.4088V19.6688H71.8114V8.96876H74.4114V10.9688C75.1447 9.59543 76.4247 8.89543 78.2514 8.86876ZM89.5917 8.88876C91.2984 8.88876 92.5784 9.37543 93.4317 10.3488C94.2984 11.3221 94.7317 12.6888 94.7317 14.4488C94.7317 14.7954 94.7251 15.0554 94.7117 15.2288H86.8117C86.9851 15.9888 87.3384 16.5888 87.8717 17.0288C88.4184 17.4554 89.0851 17.6688 89.8717 17.6688C90.4184 17.6688 90.9384 17.5688 91.4317 17.3688C91.9384 17.1554 92.3784 16.8554 92.7517 16.4688L94.1517 17.9288C93.6184 18.5154 92.9651 18.9688 92.1917 19.2888C91.4317 19.6088 90.5851 19.7688 89.6517 19.7688C88.5584 19.7688 87.5917 19.5421 86.7517 19.0888C85.9251 18.6354 85.2851 18.0021 84.8317 17.1888C84.3784 16.3621 84.1517 15.4154 84.1517 14.3488C84.1517 13.2821 84.3784 12.3354 84.8317 11.5088C85.2984 10.6821 85.9451 10.0421 86.7717 9.58876C87.5984 9.1221 88.5384 8.88876 89.5917 8.88876ZM92.3517 13.4888C92.3251 12.7021 92.0651 12.0754 91.5717 11.6088C91.0784 11.1421 90.4251 10.9088 89.6117 10.9088C88.8517 10.9088 88.2117 11.1421 87.6917 11.6088C87.1851 12.0621 86.8717 12.6888 86.7517 13.4888H92.3517ZM101.648 8.88876C102.754 8.88876 103.728 9.11543 104.568 9.56876C105.421 10.0221 106.081 10.6621 106.548 11.4888C107.028 12.3021 107.268 13.2421 107.268 14.3088C107.268 15.3888 107.028 16.3421 106.548 17.1688C106.081 17.9954 105.421 18.6354 104.568 19.0888C103.728 19.5421 102.754 19.7688 101.648 19.7688C100.528 19.7688 99.541 19.5421 98.6877 19.0888C97.8343 18.6354 97.1677 17.9954 96.6877 17.1688C96.221 16.3421 95.9877 15.3888 95.9877 14.3088C95.9877 13.2421 96.221 12.3021 96.6877 11.4888C97.1677 10.6621 97.8343 10.0221 98.6877 9.56876C99.541 9.11543 100.528 8.88876 101.648 8.88876ZM101.648 11.1088C100.741 11.1088 100.008 11.4088 99.4477 12.0088C98.8877 12.6088 98.6077 13.3888 98.6077 14.3488C98.6077 15.3088 98.8877 16.0888 99.4477 16.6888C100.008 17.2888 100.741 17.5888 101.648 17.5888C102.528 17.5888 103.248 17.2888 103.808 16.6888C104.368 16.0888 104.648 15.3088 104.648 14.3488C104.648 13.3888 104.368 12.6088 103.808 12.0088C103.248 11.4088 102.528 11.1088 101.648 11.1088Z" fill="black"/>
<path d="M247.982 5.66876H257.642L257.622 8.00876H250.662V11.7888H257.002V14.1288H250.662V19.6688H247.982V5.66876ZM259.642 4.82876H262.242V19.6688H259.642V4.82876ZM270.037 8.88876C271.744 8.88876 273.024 9.37543 273.877 10.3488C274.744 11.3221 275.177 12.6888 275.177 14.4488C275.177 14.7954 275.17 15.0554 275.157 15.2288H267.257C267.43 15.9888 267.784 16.5888 268.317 17.0288C268.864 17.4554 269.53 17.6688 270.317 17.6688C270.864 17.6688 271.384 17.5688 271.877 17.3688C272.384 17.1554 272.824 16.8554 273.197 16.4688L274.597 17.9288C274.064 18.5154 273.41 18.9688 272.637 19.2888C271.877 19.6088 271.03 19.7688 270.097 19.7688C269.004 19.7688 268.037 19.5421 267.197 19.0888C266.37 18.6354 265.73 18.0021 265.277 17.1888C264.824 16.3621 264.597 15.4154 264.597 14.3488C264.597 13.2821 264.824 12.3354 265.277 11.5088C265.744 10.6821 266.39 10.0421 267.217 9.58876C268.044 9.1221 268.984 8.88876 270.037 8.88876ZM272.797 13.4888C272.77 12.7021 272.51 12.0754 272.017 11.6088C271.524 11.1421 270.87 10.9088 270.057 10.9088C269.297 10.9088 268.657 11.1421 268.137 11.6088C267.63 12.0621 267.317 12.6888 267.197 13.4888H272.797ZM287.293 8.96876V19.6688H284.673V17.6888C283.953 19.0754 282.713 19.7688 280.953 19.7688C279.753 19.7688 278.806 19.4021 278.113 18.6688C277.42 17.9354 277.073 16.9354 277.073 15.6688V8.96876H279.693V14.9088C279.693 15.6554 279.893 16.2421 280.293 16.6688C280.706 17.0954 281.273 17.3088 281.993 17.3088C282.82 17.2954 283.473 17.0021 283.953 16.4288C284.433 15.8554 284.673 15.1288 284.673 14.2488V8.96876H287.293ZM304.558 8.86876C305.771 8.86876 306.725 9.2421 307.418 9.98876C308.111 10.7221 308.458 11.7221 308.458 12.9888V19.6688H305.838V13.7488C305.838 12.9888 305.625 12.3954 305.198 11.9688C304.785 11.5288 304.218 11.3088 303.498 11.3088C302.671 11.3354 302.011 11.6354 301.518 12.2088C301.038 12.7821 300.798 13.5088 300.798 14.3888V19.6688H298.178V13.7488C298.178 12.9888 297.971 12.3954 297.558 11.9688C297.145 11.5288 296.578 11.3088 295.858 11.3088C295.018 11.3354 294.351 11.6354 293.858 12.2088C293.378 12.7821 293.138 13.5088 293.138 14.3888V19.6688H290.538V8.96876H293.138V10.9488C293.845 9.58876 295.098 8.89543 296.898 8.86876C297.831 8.86876 298.611 9.09543 299.238 9.54876C299.878 9.98876 300.325 10.6154 300.578 11.4288C301.258 9.74876 302.585 8.89543 304.558 8.86876ZM317.678 19.6688V18.3688C317.305 18.8354 316.825 19.1888 316.238 19.4288C315.652 19.6688 314.978 19.7888 314.218 19.7888C313.472 19.7888 312.812 19.6488 312.238 19.3688C311.678 19.0754 311.245 18.6754 310.938 18.1688C310.632 17.6621 310.478 17.0954 310.478 16.4688C310.478 15.4688 310.832 14.6888 311.538 14.1288C312.245 13.5554 313.245 13.2621 314.538 13.2488H317.658V12.9688C317.658 12.3421 317.452 11.8554 317.038 11.5088C316.625 11.1621 316.025 10.9888 315.238 10.9888C314.225 10.9888 313.165 11.3221 312.058 11.9888L311.118 10.1888C311.958 9.7221 312.718 9.38876 313.398 9.18876C314.092 8.97543 314.898 8.86876 315.818 8.86876C317.205 8.86876 318.278 9.2021 319.038 9.86876C319.812 10.5354 320.205 11.4688 320.218 12.6688L320.238 19.6688H317.678ZM314.838 17.7888C315.585 17.7888 316.225 17.6154 316.758 17.2688C317.292 16.9088 317.592 16.4688 317.658 15.9488V14.9888H314.958C314.265 14.9888 313.752 15.0954 313.418 15.3088C313.098 15.5088 312.938 15.8421 312.938 16.3088C312.938 16.7621 313.105 17.1221 313.438 17.3888C313.785 17.6554 314.252 17.7888 314.838 17.7888ZM316.358 4.46876L318.858 5.48876L316.298 7.54876L314.278 7.34876L316.358 4.46876ZM329.415 19.0088C328.562 19.5288 327.668 19.7888 326.735 19.7888C325.815 19.7888 325.062 19.5221 324.475 18.9888C323.888 18.4421 323.595 17.6421 323.595 16.5888V11.3088H322.095L322.075 9.40876H323.595V6.46876H326.175V9.40876H329.235V11.3088H326.175V16.1288C326.175 16.6221 326.268 16.9754 326.455 17.1888C326.642 17.3888 326.922 17.4888 327.295 17.4888C327.695 17.4888 328.202 17.3421 328.815 17.0488L329.415 19.0088ZM331.456 8.96876H334.056V19.6688H331.456V8.96876ZM332.736 4.36876C333.163 4.36876 333.516 4.51543 333.796 4.80876C334.076 5.1021 334.216 5.47543 334.216 5.92876C334.216 6.36876 334.076 6.73543 333.796 7.02876C333.516 7.3221 333.163 7.46876 332.736 7.46876C332.309 7.46876 331.956 7.3221 331.676 7.02876C331.396 6.73543 331.256 6.36876 331.256 5.92876C331.256 5.47543 331.396 5.1021 331.676 4.80876C331.956 4.51543 332.309 4.36876 332.736 4.36876ZM344.636 12.3488C343.916 11.5621 342.983 11.1688 341.836 11.1688C340.97 11.1688 340.263 11.4621 339.716 12.0488C339.183 12.6354 338.916 13.3954 338.916 14.3288C338.916 15.2888 339.183 16.0621 339.716 16.6488C340.263 17.2354 340.97 17.5288 341.836 17.5288C343.116 17.5288 344.076 17.1088 344.716 16.2688L346.336 17.6088C345.856 18.3021 345.223 18.8354 344.436 19.2088C343.65 19.5821 342.736 19.7688 341.696 19.7688C340.643 19.7688 339.703 19.5421 338.876 19.0888C338.063 18.6354 337.43 18.0021 336.976 17.1888C336.523 16.3621 336.296 15.4154 336.296 14.3488C336.296 13.2688 336.523 12.3154 336.976 11.4888C337.443 10.6621 338.083 10.0221 338.896 9.56876C339.723 9.11543 340.67 8.88876 341.736 8.88876C342.71 8.88876 343.576 9.0621 344.336 9.40876C345.11 9.74209 345.736 10.2221 346.216 10.8488L344.636 12.3488ZM352.874 8.88876C353.981 8.88876 354.954 9.11543 355.794 9.56876C356.648 10.0221 357.308 10.6621 357.774 11.4888C358.254 12.3021 358.494 13.2421 358.494 14.3088C358.494 15.3888 358.254 16.3421 357.774 17.1688C357.308 17.9954 356.648 18.6354 355.794 19.0888C354.954 19.5421 353.981 19.7688 352.874 19.7688C351.754 19.7688 350.768 19.5421 349.914 19.0888C349.061 18.6354 348.394 17.9954 347.914 17.1688C347.448 16.3421 347.214 15.3888 347.214 14.3088C347.214 13.2421 347.448 12.3021 347.914 11.4888C348.394 10.6621 349.061 10.0221 349.914 9.56876C350.768 9.11543 351.754 8.88876 352.874 8.88876ZM352.874 11.1088C351.968 11.1088 351.234 11.4088 350.674 12.0088C350.114 12.6088 349.834 13.3888 349.834 14.3488C349.834 15.3088 350.114 16.0888 350.674 16.6888C351.234 17.2888 351.968 17.5888 352.874 17.5888C353.754 17.5888 354.474 17.2888 355.034 16.6888C355.594 16.0888 355.874 15.3088 355.874 14.3488C355.874 13.3888 355.594 12.6088 355.034 12.0088C354.474 11.4088 353.754 11.1088 352.874 11.1088Z" fill="black"/>
<path d="M239.853 122.797H242.913L247.553 131.817L252.153 122.797H255.213V136.797H252.753V126.757L248.393 135.357H246.673L242.293 126.757V136.797H239.853V122.797ZM263.021 126.017C264.728 126.017 266.008 126.504 266.861 127.477C267.728 128.45 268.161 129.817 268.161 131.577C268.161 131.924 268.155 132.184 268.141 132.357H260.241C260.415 133.117 260.768 133.717 261.301 134.157C261.848 134.584 262.515 134.797 263.301 134.797C263.848 134.797 264.368 134.697 264.861 134.497C265.368 134.284 265.808 133.984 266.181 133.597L267.581 135.057C267.048 135.644 266.395 136.097 265.621 136.417C264.861 136.737 264.015 136.897 263.081 136.897C261.988 136.897 261.021 136.67 260.181 136.217C259.355 135.764 258.715 135.13 258.261 134.317C257.808 133.49 257.581 132.544 257.581 131.477C257.581 130.41 257.808 129.464 258.261 128.637C258.728 127.81 259.375 127.17 260.201 126.717C261.028 126.25 261.968 126.017 263.021 126.017ZM265.781 130.617C265.755 129.83 265.495 129.204 265.001 128.737C264.508 128.27 263.855 128.037 263.041 128.037C262.281 128.037 261.641 128.27 261.121 128.737C260.615 129.19 260.301 129.817 260.181 130.617H265.781ZM270.497 121.957H273.097V136.797H270.497V121.957ZM282.753 136.797V135.497C282.379 135.964 281.899 136.317 281.313 136.557C280.726 136.797 280.053 136.917 279.293 136.917C278.546 136.917 277.886 136.777 277.312 136.497C276.753 136.204 276.319 135.804 276.013 135.297C275.706 134.79 275.553 134.224 275.553 133.597C275.553 132.597 275.906 131.817 276.613 131.257C277.319 130.684 278.319 130.39 279.613 130.377H282.733V130.097C282.733 129.47 282.526 128.984 282.113 128.637C281.699 128.29 281.099 128.117 280.313 128.117C279.299 128.117 278.239 128.45 277.133 129.117L276.193 127.317C277.033 126.85 277.793 126.517 278.473 126.317C279.166 126.104 279.973 125.997 280.893 125.997C282.279 125.997 283.353 126.33 284.113 126.997C284.886 127.664 285.279 128.597 285.293 129.797L285.313 136.797H282.753ZM279.913 134.917C280.659 134.917 281.299 134.744 281.833 134.397C282.366 134.037 282.666 133.597 282.733 133.077V132.117H280.033C279.339 132.117 278.826 132.224 278.493 132.437C278.173 132.637 278.013 132.97 278.013 133.437C278.013 133.89 278.179 134.25 278.513 134.517C278.859 134.784 279.326 134.917 279.913 134.917ZM294.669 125.997C295.896 125.997 296.863 126.37 297.569 127.117C298.276 127.85 298.629 128.85 298.629 130.117V136.797H296.009V130.877C296.009 130.13 295.796 129.544 295.369 129.117C294.943 128.677 294.363 128.457 293.629 128.457C292.763 128.47 292.076 128.764 291.569 129.337C291.076 129.91 290.829 130.644 290.829 131.537V136.797H288.229V126.097H290.829V128.097C291.563 126.724 292.843 126.024 294.669 125.997ZM308.91 129.477C308.19 128.69 307.256 128.297 306.11 128.297C305.243 128.297 304.536 128.59 303.99 129.177C303.456 129.764 303.19 130.524 303.19 131.457C303.19 132.417 303.456 133.19 303.99 133.777C304.536 134.364 305.243 134.657 306.11 134.657C307.39 134.657 308.35 134.237 308.99 133.397L310.61 134.737C310.13 135.43 309.496 135.964 308.71 136.337C307.923 136.71 307.01 136.897 305.97 136.897C304.916 136.897 303.976 136.67 303.15 136.217C302.336 135.764 301.703 135.13 301.25 134.317C300.796 133.49 300.57 132.544 300.57 131.477C300.57 130.397 300.796 129.444 301.25 128.617C301.716 127.79 302.356 127.15 303.17 126.697C303.996 126.244 304.943 126.017 306.01 126.017C306.983 126.017 307.85 126.19 308.61 126.537C309.383 126.87 310.01 127.35 310.49 127.977L308.91 129.477ZM317.148 126.017C318.254 126.017 319.228 126.244 320.068 126.697C320.921 127.15 321.581 127.79 322.048 128.617C322.528 129.43 322.768 130.37 322.768 131.437C322.768 132.517 322.528 133.47 322.048 134.297C321.581 135.124 320.921 135.764 320.068 136.217C319.228 136.67 318.254 136.897 317.148 136.897C316.028 136.897 315.041 136.67 314.188 136.217C313.334 135.764 312.668 135.124 312.188 134.297C311.721 133.47 311.488 132.517 311.488 131.437C311.488 130.37 311.721 129.43 312.188 128.617C312.668 127.79 313.334 127.15 314.188 126.697C315.041 126.244 316.028 126.017 317.148 126.017ZM317.148 128.237C316.241 128.237 315.508 128.537 314.948 129.137C314.388 129.737 314.108 130.517 314.108 131.477C314.108 132.437 314.388 133.217 314.948 133.817C315.508 134.417 316.241 134.717 317.148 134.717C318.028 134.717 318.748 134.417 319.308 133.817C319.868 133.217 320.148 132.437 320.148 131.477C320.148 130.517 319.868 129.737 319.308 129.137C318.748 128.537 318.028 128.237 317.148 128.237ZM317.908 121.597L320.408 122.617L317.848 124.677L315.828 124.477L317.908 121.597ZM325.126 121.957H327.726V136.797H325.126V121.957ZM331.061 126.097H333.661V136.797H331.061V126.097ZM332.341 121.497C332.768 121.497 333.121 121.644 333.401 121.937C333.681 122.23 333.821 122.604 333.821 123.057C333.821 123.497 333.681 123.864 333.401 124.157C333.121 124.45 332.768 124.597 332.341 124.597C331.915 124.597 331.561 124.45 331.281 124.157C331.001 123.864 330.861 123.497 330.861 123.057C330.861 122.604 331.001 122.23 331.281 121.937C331.561 121.644 331.915 121.497 332.341 121.497ZM344.242 129.477C343.522 128.69 342.588 128.297 341.442 128.297C340.575 128.297 339.868 128.59 339.322 129.177C338.788 129.764 338.522 130.524 338.522 131.457C338.522 132.417 338.788 133.19 339.322 133.777C339.868 134.364 340.575 134.657 341.442 134.657C342.722 134.657 343.682 134.237 344.322 133.397L345.942 134.737C345.462 135.43 344.828 135.964 344.042 136.337C343.255 136.71 342.342 136.897 341.302 136.897C340.248 136.897 339.308 136.67 338.482 136.217C337.668 135.764 337.035 135.13 336.582 134.317C336.128 133.49 335.902 132.544 335.902 131.477C335.902 130.397 336.128 129.444 336.582 128.617C337.048 127.79 337.688 127.15 338.502 126.697C339.328 126.244 340.275 126.017 341.342 126.017C342.315 126.017 343.182 126.19 343.942 126.537C344.715 126.87 345.342 127.35 345.822 127.977L344.242 129.477ZM352.48 126.017C353.586 126.017 354.56 126.244 355.4 126.697C356.253 127.15 356.913 127.79 357.38 128.617C357.86 129.43 358.1 130.37 358.1 131.437C358.1 132.517 357.86 133.47 357.38 134.297C356.913 135.124 356.253 135.764 355.4 136.217C354.56 136.67 353.586 136.897 352.48 136.897C351.36 136.897 350.373 136.67 349.52 136.217C348.666 135.764 348 135.124 347.52 134.297C347.053 133.47 346.82 132.517 346.82 131.437C346.82 130.37 347.053 129.43 347.52 128.617C348 127.79 348.666 127.15 349.52 126.697C350.373 126.244 351.36 126.017 352.48 126.017ZM352.48 128.237C351.573 128.237 350.84 128.537 350.28 129.137C349.72 129.737 349.44 130.517 349.44 131.477C349.44 132.437 349.72 133.217 350.28 133.817C350.84 134.417 351.573 134.717 352.48 134.717C353.36 134.717 354.08 134.417 354.64 133.817C355.2 133.217 355.48 132.437 355.48 131.477C355.48 130.517 355.2 129.737 354.64 129.137C354.08 128.537 353.36 128.237 352.48 128.237Z" fill="black"/>
<path d="M47.6346 108.386C47.1009 109.019 47.182 109.966 47.8157 110.499C48.4494 111.033 49.3957 110.952 49.9293 110.318L47.6346 108.386ZM100.915 99.8272C101.654 99.4528 101.95 98.5503 101.575 97.8113L95.4755 85.7679C95.1012 85.0289 94.1986 84.7332 93.4596 85.1075C92.7206 85.4819 92.4249 86.3844 92.7992 87.1235L98.2213 97.8286L87.5161 103.251C86.7771 103.625 86.4814 104.528 86.8557 105.267C87.2301 106.006 88.1326 106.301 88.8717 105.927L100.915 99.8272ZM48.7819 109.352L49.9293 110.318C55.6998 103.466 73.9154 91.4448 99.7703 99.9145L100.237 98.489L100.704 97.0636C73.5029 88.1528 54.0609 100.754 47.6346 108.386L48.7819 109.352Z" fill="black"/>
<path d="M311.842 108.386C312.375 109.019 312.294 109.966 311.66 110.499C311.027 111.033 310.081 110.952 309.547 110.318L311.842 108.386ZM258.561 99.8272C257.822 99.4528 257.527 98.5503 257.901 97.8113L264.001 85.7679C264.375 85.0289 265.278 84.7332 266.017 85.1075C266.756 85.4819 267.051 86.3844 266.677 87.1235L261.255 97.8286L271.96 103.251C272.699 103.625 272.995 104.528 272.62 105.267C272.246 106.006 271.344 106.301 270.605 105.927L258.561 99.8272ZM310.694 109.352L309.547 110.318C303.776 103.466 285.561 91.4448 259.706 99.9145L259.239 98.489L258.772 97.0636C285.973 88.1528 305.415 100.754 311.842 108.386L310.694 109.352Z" fill="black"/>
<path d="M47.6346 35.1695C47.1009 34.5358 47.182 33.5896 47.8157 33.0559C48.4494 32.5223 49.3957 32.6034 49.9293 33.2371L47.6346 35.1695ZM100.915 43.7279C101.654 44.1023 101.95 45.0048 101.575 45.7439L95.4755 57.7872C95.1012 58.5262 94.1986 58.8219 93.4596 58.4476C92.7206 58.0732 92.4249 57.1707 92.7992 56.4317L98.2213 45.7265L87.5161 40.3044C86.7771 39.9301 86.4814 39.0275 86.8557 38.2885C87.2301 37.5494 88.1326 37.2538 88.8717 37.6281L100.915 43.7279ZM48.7819 34.2033L49.9293 33.2371C55.6998 40.0896 73.9154 52.1103 99.7703 43.6406L100.237 45.0661L100.704 46.4916C73.5029 55.4023 54.0609 42.8008 47.6346 35.1695L48.7819 34.2033Z" fill="black"/>
<path d="M311.842 35.1695C312.375 34.5358 312.294 33.5896 311.66 33.0559C311.027 32.5223 310.081 32.6034 309.547 33.2371L311.842 35.1695ZM258.561 43.7279C257.822 44.1023 257.527 45.0048 257.901 45.7439L264.001 57.7872C264.375 58.5262 265.278 58.8219 266.017 58.4476C266.756 58.0732 267.051 57.1707 266.677 56.4317L261.255 45.7265L271.96 40.3044C272.699 39.9301 272.995 39.0275 272.62 38.2885C272.246 37.5494 271.344 37.2538 270.605 37.6281L258.561 43.7279ZM310.694 34.2033L309.547 33.2371C303.776 40.0896 285.561 52.1103 259.706 43.6406L259.239 45.0661L258.772 46.4916C285.973 55.4023 305.415 42.8008 311.842 35.1695L310.694 34.2033Z" fill="black"/>
</svg>
